SplineFontDB: 3.2
FontName: Untitled1
FullName: Untitled1
FamilyName: Untitled1
Weight: Regular
Copyright: Copyright (c) 2025, mason
UComments: "2025-12-9: Created with FontForge (http://fontforge.org)"
Version: 001.000
ItalicAngle: 0
UnderlinePosition: -100
UnderlineWidth: 50
Ascent: 800
Descent: 200
InvalidEm: 0
LayerCount: 2
Layer: 0 0 "Back" 1
Layer: 1 0 "Fore" 0
XUID: [1021 345 228710327 16222]
OS2Version: 0
OS2_WeightWidthSlopeOnly: 0
OS2_UseTypoMetrics: 1
CreationTime: 1765340013
ModificationTime: 1765340338
OS2TypoAscent: 0
OS2TypoAOffset: 1
OS2TypoDescent: 0
OS2TypoDOffset: 1
OS2TypoLinegap: 0
OS2WinAscent: 0
OS2WinAOffset: 1
OS2WinDescent: 0
OS2WinDOffset: 1
HheadAscent: 0
HheadAOffset: 1
HheadDescent: 0
HheadDOffset: 1
OS2Vendor: 'PfEd'
DEI: 91125
Encoding: ISO8859-1
UnicodeInterp: none
NameList: AGL For New Fonts
DisplaySize: -48
AntiAlias: 1
FitToEm: 0
WinInfo: 48 16 4
BeginChars: 256 26

StartChar: A
Encoding: 65 65 0
Width: 1000
Flags: H
LayerCount: 2
Fore
SplineSet
6 799 m 1
 10 799 l 1
 10 800 l 1
 6 800 l 1
 6 799 l 1
20 799 m 1
 29 799 l 1
 29 800 l 1
 20 800 l 1
 20 799 l 1
37 799 m 1
 45 799 l 1
 45 800 l 1
 37 800 l 1
 37 799 l 1
50 799 m 1
 60 799 l 1
 60 800 l 1
 50 800 l 1
 50 799 l 1
68 799 m 1
 77 799 l 1
 77 800 l 1
 68 800 l 1
 68 799 l 1
84 799 m 1
 92 799 l 1
 92 800 l 1
 84 800 l 1
 84 799 l 1
100 799 m 1
 108 799 l 1
 108 800 l 1
 100 800 l 1
 100 799 l 1
114 799 m 1
 118 799 l 1
 118 800 l 1
 114 800 l 1
 114 799 l 1
122 799 m 1
 126 799 l 1
 126 800 l 1
 122 800 l 1
 122 799 l 1
132 799 m 1
 140 799 l 1
 140 800 l 1
 132 800 l 1
 132 799 l 1
151 799 m 1
 158 799 l 1
 158 800 l 1
 151 800 l 1
 151 799 l 1
5 797 m 1
 6 797 l 1
 6 799 l 1
 5 799 l 1
 5 797 l 1
6 797 m 1
 6 799 l 1
 10 799 l 1
 10 797 l 1
 6 797 l 1
10 797 m 1
 11 797 l 1
 11 799 l 1
 10 799 l 1
 10 797 l 1
19 798 m 1
 20 798 l 1
 20 799 l 1
 19 799 l 1
 19 798 l 1
20 797 m 1
 20 799 l 1
 29 799 l 1
 29 797 l 1
 20 797 l 1
29 798 m 1
 30 798 l 1
 30 799 l 1
 29 799 l 1
 29 798 l 1
36 798 m 1
 37 798 l 1
 37 799 l 1
 36 799 l 1
 36 798 l 1
37 797 m 1
 37 799 l 1
 45 799 l 1
 45 797 l 1
 37 797 l 1
45 798 m 1
 46 798 l 1
 46 799 l 1
 45 799 l 1
 45 798 l 1
49 797 m 1
 50 797 l 1
 50 799 l 1
 49 799 l 1
 49 797 l 1
50 797 m 1
 50 799 l 1
 60 799 l 1
 60 797 l 1
 50 797 l 1
60 798 m 1
 61 798 l 1
 61 799 l 1
 60 799 l 1
 60 798 l 1
67 798 m 1
 68 798 l 1
 68 799 l 1
 67 799 l 1
 67 798 l 1
68 797 m 1
 68 799 l 1
 77 799 l 1
 77 797 l 1
 68 797 l 1
77 798 m 1
 78 798 l 1
 78 799 l 1
 77 799 l 1
 77 798 l 1
83 798 m 1
 84 798 l 1
 84 799 l 1
 83 799 l 1
 83 798 l 1
84 797 m 1
 84 799 l 1
 92 799 l 1
 92 797 l 1
 84 797 l 1
92 798 m 1
 93 798 l 1
 93 799 l 1
 92 799 l 1
 92 798 l 1
99 798 m 1
 100 798 l 1
 100 799 l 1
 99 799 l 1
 99 798 l 1
100 797 m 1
 100 799 l 1
 108 799 l 1
 108 797 l 1
 100 797 l 1
108 798 m 1
 109 798 l 1
 109 799 l 1
 108 799 l 1
 108 798 l 1
113 797 m 1
 114 797 l 1
 114 799 l 1
 113 799 l 1
 113 797 l 1
114 797 m 1
 114 799 l 1
 118 799 l 1
 118 797 l 1
 114 797 l 1
118 797 m 1
 119 797 l 1
 119 799 l 1
 118 799 l 1
 118 797 l 1
121 797 m 1
 122 797 l 1
 122 799 l 1
 121 799 l 1
 121 797 l 1
122 797 m 1
 122 799 l 1
 126 799 l 1
 126 797 l 1
 122 797 l 1
126 797 m 1
 127 797 l 1
 127 799 l 1
 126 799 l 1
 126 797 l 1
131 798 m 1
 132 798 l 1
 132 799 l 1
 131 799 l 1
 131 798 l 1
132 797 m 1
 132 799 l 1
 140 799 l 1
 140 797 l 1
 132 797 l 1
140 798 m 1
 141 798 l 1
 141 799 l 1
 140 799 l 1
 140 798 l 1
150 798 m 1
 151 798 l 1
 151 799 l 1
 150 799 l 1
 150 798 l 1
151 798 m 1
 151 799 l 1
 158 799 l 1
 158 798 l 1
 151 798 l 1
158 798 m 1
 159 798 l 1
 159 799 l 1
 158 799 l 1
 158 798 l 1
18 786 m 1
 19 786 l 1
 19 798 l 1
 18 798 l 1
 18 786 l 1
19 786 m 1
 19 798 l 1
 20 798 l 1
 20 786 l 1
 19 786 l 1
29 792 m 1
 29 798 l 1
 30 798 l 1
 30 792 l 1
 29 792 l 1
30 792 m 1
 31 792 l 1
 31 798 l 1
 30 798 l 1
 30 792 l 1
35 797 m 1
 36 797 l 1
 36 798 l 1
 35 798 l 1
 35 797 l 1
36 786 m 1
 36 798 l 1
 37 798 l 1
 37 786 l 1
 36 786 l 1
45 795 m 1
 45 798 l 1
 46 798 l 1
 46 795 l 1
 45 795 l 1
46 795 m 1
 47 795 l 1
 47 798 l 1
 46 798 l 1
 46 795 l 1
60 786 m 1
 60 798 l 1
 61 798 l 1
 61 786 l 1
 60 786 l 1
61 797 m 1
 62 797 l 1
 62 798 l 1
 61 798 l 1
 61 797 l 1
66 786 m 1
 67 786 l 1
 67 798 l 1
 66 798 l 1
 66 786 l 1
67 786 m 1
 67 798 l 1
 68 798 l 1
 68 786 l 1
 67 786 l 1
77 795 m 1
 77 798 l 1
 78 798 l 1
 78 795 l 1
 77 795 l 1
78 795 m 1
 79 795 l 1
 79 798 l 1
 78 798 l 1
 78 795 l 1
82 785 m 1
 83 785 l 1
 83 798 l 1
 82 798 l 1
 82 785 l 1
83 785 m 1
 83 798 l 1
 84 798 l 1
 84 785 l 1
 83 785 l 1
92 796 m 1
 92 798 l 1
 93 798 l 1
 93 796 l 1
 92 796 l 1
93 796 m 1
 94 796 l 1
 94 798 l 1
 93 798 l 1
 93 796 l 1
98 797 m 1
 99 797 l 1
 99 798 l 1
 98 798 l 1
 98 797 l 1
99 786 m 1
 99 798 l 1
 100 798 l 1
 100 786 l 1
 99 786 l 1
108 795 m 1
 108 798 l 1
 109 798 l 1
 109 795 l 1
 108 795 l 1
109 795 m 1
 110 795 l 1
 110 798 l 1
 109 798 l 1
 109 795 l 1
130 796 m 1
 131 796 l 1
 131 798 l 1
 130 798 l 1
 130 796 l 1
131 796 m 1
 131 798 l 1
 132 798 l 1
 132 796 l 1
 131 796 l 1
140 796 m 1
 140 798 l 1
 141 798 l 1
 141 796 l 1
 140 796 l 1
141 796 m 1
 142 796 l 1
 142 798 l 1
 141 798 l 1
 141 796 l 1
151 797 m 1
 152 797 l 1
 152 798 l 1
 151 798 l 1
 151 797 l 1
152 797 m 1
 152 798 l 1
 157 798 l 1
 157 797 l 1
 152 797 l 1
157 797 m 1
 158 797 l 1
 158 798 l 1
 157 798 l 1
 157 797 l 1
4 794 m 1
 5 794 l 1
 5 797 l 1
 4 797 l 1
 4 794 l 1
5 794 m 1
 5 797 l 1
 7 797 l 1
 7 794 l 1
 5 794 l 1
7 794 m 1
 9 794 l 1
 9 797 l 1
 7 797 l 1
 7 794 l 1
9 794 m 1
 9 797 l 1
 11 797 l 1
 11 794 l 1
 9 794 l 1
11 794 m 1
 12 794 l 1
 12 797 l 1
 11 797 l 1
 11 794 l 1
20 785 m 1
 20 797 l 1
 22 797 l 1
 22 785 l 1
 20 785 l 1
22 796 m 1
 27 796 l 1
 27 797 l 1
 22 797 l 1
 22 796 l 1
27 796 m 1
 27 797 l 1
 29 797 l 1
 29 796 l 1
 27 796 l 1
34 795 m 1
 35 795 l 1
 35 797 l 1
 34 797 l 1
 34 795 l 1
35 787 m 1
 35 797 l 1
 36 797 l 1
 36 787 l 1
 35 787 l 1
37 796 m 1
 37 797 l 1
 39 797 l 1
 39 796 l 1
 37 796 l 1
39 796 m 1
 44 796 l 1
 44 797 l 1
 39 797 l 1
 39 796 l 1
44 796 m 1
 44 797 l 1
 45 797 l 1
 45 796 l 1
 44 796 l 1
50 787 m 1
 51 787 l 1
 51 797 l 1
 50 797 l 1
 50 787 l 1
51 785 m 1
 51 797 l 1
 53 797 l 1
 53 785 l 1
 51 785 l 1
53 796 m 1
 59 796 l 1
 59 797 l 1
 53 797 l 1
 53 796 l 1
59 796 m 1
 59 797 l 1
 60 797 l 1
 60 796 l 1
 59 796 l 1
61 787 m 1
 61 797 l 1
 62 797 l 1
 62 787 l 1
 61 787 l 1
62 787 m 1
 63 787 l 1
 63 797 l 1
 62 797 l 1
 62 787 l 1
68 796 m 1
 68 797 l 1
 70 797 l 1
 70 796 l 1
 68 796 l 1
70 796 m 1
 76 796 l 1
 76 797 l 1
 70 797 l 1
 70 796 l 1
76 796 m 1
 76 797 l 1
 77 797 l 1
 77 796 l 1
 76 796 l 1
84 785 m 1
 84 797 l 1
 85 797 l 1
 85 785 l 1
 84 785 l 1
85 796 m 1
 91 796 l 1
 91 797 l 1
 85 797 l 1
 85 796 l 1
91 795 m 1
 91 797 l 1
 92 797 l 1
 92 795 l 1
 91 795 l 1
97 795 m 1
 98 795 l 1
 98 797 l 1
 97 797 l 1
 97 795 l 1
98 787 m 1
 98 797 l 1
 99 797 l 1
 99 787 l 1
 98 787 l 1
100 796 m 1
 100 797 l 1
 102 797 l 1
 102 796 l 1
 100 796 l 1
102 796 m 1
 107 796 l 1
 107 797 l 1
 102 797 l 1
 102 796 l 1
107 796 m 1
 107 797 l 1
 108 797 l 1
 108 796 l 1
 107 796 l 1
114 787 m 1
 115 787 l 1
 115 797 l 1
 114 797 l 1
 114 787 l 1
115 785 m 1
 115 797 l 1
 117 797 l 1
 117 785 l 1
 115 785 l 1
117 794 m 1
 118 794 l 1
 118 797 l 1
 117 797 l 1
 117 794 l 1
122 794 m 1
 123 794 l 1
 123 797 l 1
 122 797 l 1
 122 794 l 1
123 785 m 1
 123 797 l 1
 125 797 l 1
 125 785 l 1
 123 785 l 1
125 787 m 1
 126 787 l 1
 126 797 l 1
 125 797 l 1
 125 787 l 1
132 796 m 1
 135 796 l 1
 135 797 l 1
 132 797 l 1
 132 796 l 1
135 785 m 1
 135 797 l 1
 137 797 l 1
 137 785 l 1
 135 785 l 1
137 796 m 1
 140 796 l 1
 140 797 l 1
 137 797 l 1
 137 796 l 1
152 796 m 1
 154 796 l 1
 154 797 l 1
 152 797 l 1
 152 796 l 1
154 786 m 1
 154 797 l 1
 156 797 l 1
 156 786 l 1
 154 786 l 1
156 786 m 1
 157 786 l 1
 157 797 l 1
 156 797 l 1
 156 786 l 1
22 792 m 1
 23 792 l 1
 23 796 l 1
 22 796 l 1
 22 792 l 1
27 793 m 1
 28 793 l 1
 28 796 l 1
 27 796 l 1
 27 793 l 1
28 785 m 1
 28 796 l 1
 29 796 l 1
 29 785 l 1
 28 785 l 1
37 795 m 1
 37 796 l 1
 38 796 l 1
 38 795 l 1
 37 795 l 1
38 795 m 1
 39 795 l 1
 39 796 l 1
 38 796 l 1
 38 795 l 1
44 795 m 1
 45 795 l 1
 45 796 l 1
 44 796 l 1
 44 795 l 1
53 787 m 1
 54 787 l 1
 54 796 l 1
 53 796 l 1
 53 787 l 1
59 788 m 1
 60 788 l 1
 60 796 l 1
 59 796 l 1
 59 788 l 1
68 785 m 1
 68 796 l 1
 69 796 l 1
 69 785 l 1
 68 785 l 1
69 794 m 1
 70 794 l 1
 70 796 l 1
 69 796 l 1
 69 794 l 1
76 795 m 1
 77 795 l 1
 77 796 l 1
 76 796 l 1
 76 795 l 1
85 794 m 1
 86 794 l 1
 86 796 l 1
 85 796 l 1
 85 794 l 1
90 795 m 1
 91 795 l 1
 91 796 l 1
 90 796 l 1
 90 795 l 1
92 795 m 1
 93 795 l 1
 93 796 l 1
 92 796 l 1
 92 795 l 1
100 795 m 1
 100 796 l 1
 101 796 l 1
 101 795 l 1
 100 795 l 1
101 795 m 1
 102 795 l 1
 102 796 l 1
 101 796 l 1
 101 795 l 1
107 795 m 1
 108 795 l 1
 108 796 l 1
 107 796 l 1
 107 795 l 1
131 795 m 1
 132 795 l 1
 132 796 l 1
 131 796 l 1
 131 795 l 1
134 793 m 1
 135 793 l 1
 135 796 l 1
 134 796 l 1
 134 793 l 1
137 793 m 1
 138 793 l 1
 138 796 l 1
 137 796 l 1
 137 793 l 1
140 795 m 1
 141 795 l 1
 141 796 l 1
 140 796 l 1
 140 795 l 1
153 789 m 1
 154 789 l 1
 154 796 l 1
 153 796 l 1
 153 789 l 1
33 789 m 1
 34 789 l 1
 34 795 l 1
 33 795 l 1
 33 789 l 1
34 789 m 1
 34 795 l 1
 35 795 l 1
 35 789 l 1
 34 789 l 1
37 789 m 1
 38 789 l 1
 38 795 l 1
 37 795 l 1
 37 789 l 1
45 794 m 1
 46 794 l 1
 46 795 l 1
 45 795 l 1
 45 794 l 1
73 794 m 1
 74 794 l 1
 74 795 l 1
 73 795 l 1
 73 794 l 1
77 794 m 1
 78 794 l 1
 78 795 l 1
 77 795 l 1
 77 794 l 1
88 794 m 1
 89 794 l 1
 89 795 l 1
 88 795 l 1
 88 794 l 1
91 794 m 1
 92 794 l 1
 92 795 l 1
 91 795 l 1
 91 794 l 1
96 789 m 1
 97 789 l 1
 97 795 l 1
 96 795 l 1
 96 789 l 1
97 789 m 1
 97 795 l 1
 98 795 l 1
 98 789 l 1
 97 789 l 1
100 789 m 1
 101 789 l 1
 101 795 l 1
 100 795 l 1
 100 789 l 1
108 794 m 1
 109 794 l 1
 109 795 l 1
 108 795 l 1
 108 794 l 1
3 791 m 1
 4 791 l 1
 4 794 l 1
 3 794 l 1
 3 791 l 1
4 789 m 1
 4 794 l 1
 6 794 l 1
 6 789 l 1
 4 789 l 1
6 791 m 1
 7 791 l 1
 7 794 l 1
 6 794 l 1
 6 791 l 1
9 791 m 1
 10 791 l 1
 10 794 l 1
 9 794 l 1
 9 791 l 1
10 789 m 1
 10 794 l 1
 12 794 l 1
 12 789 l 1
 10 789 l 1
12 791 m 1
 13 791 l 1
 13 794 l 1
 12 794 l 1
 12 791 l 1
69 790 m 1
 69 794 l 1
 70 794 l 1
 70 790 l 1
 69 790 l 1
70 793 m 1
 73 793 l 1
 73 794 l 1
 70 794 l 1
 70 793 l 1
73 790 m 1
 73 794 l 1
 74 794 l 1
 74 790 l 1
 73 790 l 1
74 793 m 1
 75 793 l 1
 75 794 l 1
 74 794 l 1
 74 793 l 1
85 790 m 1
 85 794 l 1
 86 794 l 1
 86 790 l 1
 85 790 l 1
86 793 m 1
 88 793 l 1
 88 794 l 1
 86 794 l 1
 86 793 l 1
88 790 m 1
 88 794 l 1
 89 794 l 1
 89 790 l 1
 88 790 l 1
89 793 m 1
 90 793 l 1
 90 794 l 1
 89 794 l 1
 89 793 l 1
117 790 m 1
 117 794 l 1
 118 794 l 1
 118 790 l 1
 117 790 l 1
118 793 m 1
 122 793 l 1
 122 794 l 1
 118 794 l 1
 118 793 l 1
122 790 m 1
 122 794 l 1
 123 794 l 1
 123 790 l 1
 122 790 l 1
23 792 m 1
 27 792 l 1
 27 793 l 1
 23 793 l 1
 23 792 l 1
27 789 m 1
 27 793 l 1
 28 793 l 1
 28 789 l 1
 27 789 l 1
70 791 m 1
 70 793 l 1
 73 793 l 1
 73 791 l 1
 70 791 l 1
74 791 m 1
 74 793 l 1
 75 793 l 1
 75 791 l 1
 74 791 l 1
75 791 m 1
 76 791 l 1
 76 793 l 1
 75 793 l 1
 75 791 l 1
86 791 m 1
 86 793 l 1
 88 793 l 1
 88 791 l 1
 86 791 l 1
89 791 m 1
 89 793 l 1
 90 793 l 1
 90 791 l 1
 89 791 l 1
90 791 m 1
 91 791 l 1
 91 793 l 1
 90 793 l 1
 90 791 l 1
104 792 m 1
 109 792 l 1
 109 793 l 1
 104 793 l 1
 104 792 l 1
118 791 m 1
 118 793 l 1
 122 793 l 1
 122 791 l 1
 118 791 l 1
133 791 m 1
 134 791 l 1
 134 793 l 1
 133 793 l 1
 133 791 l 1
134 791 m 1
 134 793 l 1
 135 793 l 1
 135 791 l 1
 134 791 l 1
137 791 m 1
 137 793 l 1
 138 793 l 1
 138 791 l 1
 137 791 l 1
138 791 m 1
 139 791 l 1
 139 793 l 1
 138 793 l 1
 138 791 l 1
7 791 m 1
 9 791 l 1
 9 792 l 1
 7 792 l 1
 7 791 l 1
22 790 m 1
 22 792 l 1
 27 792 l 1
 27 790 l 1
 22 790 l 1
29 790 m 1
 30 790 l 1
 30 792 l 1
 29 792 l 1
 29 790 l 1
103 791 m 1
 104 791 l 1
 104 792 l 1
 103 792 l 1
 103 791 l 1
104 790 m 1
 104 792 l 1
 109 792 l 1
 109 790 l 1
 104 790 l 1
109 791 m 1
 110 791 l 1
 110 792 l 1
 109 792 l 1
 109 791 l 1
147 791 m 1
 148 791 l 1
 148 792 l 1
 147 792 l 1
 147 791 l 1
2 787 m 1
 3 787 l 1
 3 791 l 1
 2 791 l 1
 2 787 l 1
3 785 m 1
 3 791 l 1
 4 791 l 1
 4 785 l 1
 3 785 l 1
6 789 m 1
 6 791 l 1
 10 791 l 1
 10 789 l 1
 6 789 l 1
12 785 m 1
 12 791 l 1
 13 791 l 1
 13 785 l 1
 12 785 l 1
13 787 m 1
 14 787 l 1
 14 791 l 1
 13 791 l 1
 13 787 l 1
70 790 m 1
 73 790 l 1
 73 791 l 1
 70 791 l 1
 70 790 l 1
74 790 m 1
 75 790 l 1
 75 791 l 1
 74 791 l 1
 74 790 l 1
86 790 m 1
 88 790 l 1
 88 791 l 1
 86 791 l 1
 86 790 l 1
89 790 m 1
 90 790 l 1
 90 791 l 1
 89 791 l 1
 89 790 l 1
102 790 m 1
 103 790 l 1
 103 791 l 1
 102 791 l 1
 102 790 l 1
103 790 m 1
 103 791 l 1
 104 791 l 1
 104 790 l 1
 103 790 l 1
109 787 m 1
 109 791 l 1
 110 791 l 1
 110 787 l 1
 109 787 l 1
110 787 m 1
 111 787 l 1
 111 791 l 1
 110 791 l 1
 110 787 l 1
118 790 m 1
 122 790 l 1
 122 791 l 1
 118 791 l 1
 118 790 l 1
134 787 m 1
 135 787 l 1
 135 791 l 1
 134 791 l 1
 134 787 l 1
137 787 m 1
 138 787 l 1
 138 791 l 1
 137 791 l 1
 137 787 l 1
146 786 m 1
 147 786 l 1
 147 791 l 1
 146 791 l 1
 146 786 l 1
147 786 m 1
 147 791 l 1
 148 791 l 1
 148 786 l 1
 147 786 l 1
148 790 m 1
 149 790 l 1
 149 791 l 1
 148 791 l 1
 148 790 l 1
22 789 m 1
 27 789 l 1
 27 790 l 1
 22 790 l 1
 22 789 l 1
29 786 m 1
 29 790 l 1
 30 790 l 1
 30 786 l 1
 29 786 l 1
30 786 m 1
 31 786 l 1
 31 790 l 1
 30 790 l 1
 30 786 l 1
45 789 m 1
 46 789 l 1
 46 790 l 1
 45 790 l 1
 45 789 l 1
69 788 m 1
 70 788 l 1
 70 790 l 1
 69 790 l 1
 69 788 l 1
73 789 m 1
 74 789 l 1
 74 790 l 1
 73 790 l 1
 73 789 l 1
77 789 m 1
 78 789 l 1
 78 790 l 1
 77 790 l 1
 77 789 l 1
85 786 m 1
 86 786 l 1
 86 790 l 1
 85 790 l 1
 85 786 l 1
88 789 m 1
 89 789 l 1
 89 790 l 1
 88 790 l 1
 88 789 l 1
103 789 m 1
 107 789 l 1
 107 790 l 1
 103 790 l 1
 103 789 l 1
107 789 m 1
 107 790 l 1
 109 790 l 1
 109 789 l 1
 107 789 l 1
117 787 m 1
 118 787 l 1
 118 790 l 1
 117 790 l 1
 117 787 l 1
122 787 m 1
 123 787 l 1
 123 790 l 1
 122 790 l 1
 122 787 l 1
148 785 m 1
 148 790 l 1
 149 790 l 1
 149 785 l 1
 148 785 l 1
149 788 m 1
 150 788 l 1
 150 790 l 1
 149 790 l 1
 149 788 l 1
4 785 m 1
 4 789 l 1
 5 789 l 1
 5 785 l 1
 4 785 l 1
5 788 m 1
 11 788 l 1
 11 789 l 1
 5 789 l 1
 5 788 l 1
11 785 m 1
 11 789 l 1
 12 789 l 1
 12 785 l 1
 11 785 l 1
22 787 m 1
 23 787 l 1
 23 789 l 1
 22 789 l 1
 22 787 l 1
27 788 m 1
 28 788 l 1
 28 789 l 1
 27 789 l 1
 27 788 l 1
34 787 m 1
 35 787 l 1
 35 789 l 1
 34 789 l 1
 34 787 l 1
37 785 m 1
 37 789 l 1
 38 789 l 1
 38 785 l 1
 37 785 l 1
38 788 m 1
 39 788 l 1
 39 789 l 1
 38 789 l 1
 38 788 l 1
44 788 m 1
 45 788 l 1
 45 789 l 1
 44 789 l 1
 44 788 l 1
45 786 m 1
 45 789 l 1
 46 789 l 1
 46 786 l 1
 45 786 l 1
46 786 m 1
 47 786 l 1
 47 789 l 1
 46 789 l 1
 46 786 l 1
76 788 m 1
 77 788 l 1
 77 789 l 1
 76 789 l 1
 76 788 l 1
77 786 m 1
 77 789 l 1
 78 789 l 1
 78 786 l 1
 77 786 l 1
78 786 m 1
 79 786 l 1
 79 789 l 1
 78 789 l 1
 78 786 l 1
97 787 m 1
 98 787 l 1
 98 789 l 1
 97 789 l 1
 97 787 l 1
100 785 m 1
 100 789 l 1
 101 789 l 1
 101 785 l 1
 100 785 l 1
101 788 m 1
 102 788 l 1
 102 789 l 1
 101 789 l 1
 101 788 l 1
107 788 m 1
 108 788 l 1
 108 789 l 1
 107 789 l 1
 107 788 l 1
108 786 m 1
 108 789 l 1
 109 789 l 1
 109 786 l 1
 108 786 l 1
131 788 m 1
 132 788 l 1
 132 789 l 1
 131 789 l 1
 131 788 l 1
152 787 m 1
 153 787 l 1
 153 789 l 1
 152 789 l 1
 152 787 l 1
153 785 m 1
 153 789 l 1
 154 789 l 1
 154 785 l 1
 153 785 l 1
5 785 m 1
 6 785 l 1
 6 788 l 1
 5 788 l 1
 5 785 l 1
10 785 m 1
 11 785 l 1
 11 788 l 1
 10 788 l 1
 10 785 l 1
23 787 m 1
 27 787 l 1
 27 788 l 1
 23 788 l 1
 23 787 l 1
27 785 m 1
 27 788 l 1
 28 788 l 1
 28 785 l 1
 27 785 l 1
38 785 m 1
 38 788 l 1
 39 788 l 1
 39 785 l 1
 38 785 l 1
39 787 m 1
 44 787 l 1
 44 788 l 1
 39 788 l 1
 39 787 l 1
44 785 m 1
 44 788 l 1
 45 788 l 1
 45 785 l 1
 44 785 l 1
54 787 m 1
 59 787 l 1
 59 788 l 1
 54 788 l 1
 54 787 l 1
59 785 m 1
 59 788 l 1
 60 788 l 1
 60 785 l 1
 59 785 l 1
69 785 m 1
 69 788 l 1
 70 788 l 1
 70 785 l 1
 69 785 l 1
70 787 m 1
 76 787 l 1
 76 788 l 1
 70 788 l 1
 70 787 l 1
76 785 m 1
 76 788 l 1
 77 788 l 1
 77 785 l 1
 76 785 l 1
101 785 m 1
 101 788 l 1
 102 788 l 1
 102 785 l 1
 101 785 l 1
102 787 m 1
 107 787 l 1
 107 788 l 1
 102 788 l 1
 102 787 l 1
107 785 m 1
 107 788 l 1
 108 788 l 1
 108 785 l 1
 107 785 l 1
130 786 m 1
 131 786 l 1
 131 788 l 1
 130 788 l 1
 130 786 l 1
131 786 m 1
 131 788 l 1
 132 788 l 1
 132 786 l 1
 131 786 l 1
132 787 m 1
 134 787 l 1
 134 788 l 1
 132 788 l 1
 132 787 l 1
138 787 m 1
 140 787 l 1
 140 788 l 1
 138 788 l 1
 138 787 l 1
140 786 m 1
 140 788 l 1
 141 788 l 1
 141 786 l 1
 140 786 l 1
141 786 m 1
 142 786 l 1
 142 788 l 1
 141 788 l 1
 141 786 l 1
149 785 m 1
 149 788 l 1
 150 788 l 1
 150 785 l 1
 149 785 l 1
150 787 m 1
 152 787 l 1
 152 788 l 1
 150 788 l 1
 150 787 l 1
1 785 m 1
 2 785 l 1
 2 787 l 1
 1 787 l 1
 1 785 l 1
2 785 m 1
 2 787 l 1
 3 787 l 1
 3 785 l 1
 2 785 l 1
13 785 m 1
 13 787 l 1
 14 787 l 1
 14 785 l 1
 13 785 l 1
14 785 m 1
 15 785 l 1
 15 787 l 1
 14 787 l 1
 14 785 l 1
22 785 m 1
 22 787 l 1
 27 787 l 1
 27 785 l 1
 22 785 l 1
35 786 m 1
 36 786 l 1
 36 787 l 1
 35 787 l 1
 35 786 l 1
39 785 m 1
 39 787 l 1
 44 787 l 1
 44 785 l 1
 39 785 l 1
49 785 m 1
 50 785 l 1
 50 787 l 1
 49 787 l 1
 49 785 l 1
50 785 m 1
 50 787 l 1
 51 787 l 1
 51 785 l 1
 50 785 l 1
53 785 m 1
 53 787 l 1
 59 787 l 1
 59 785 l 1
 53 785 l 1
61 786 m 1
 62 786 l 1
 62 787 l 1
 61 787 l 1
 61 786 l 1
70 785 m 1
 70 787 l 1
 76 787 l 1
 76 785 l 1
 70 785 l 1
86 786 m 1
 87 786 l 1
 87 787 l 1
 86 787 l 1
 86 786 l 1
98 786 m 1
 99 786 l 1
 99 787 l 1
 98 787 l 1
 98 786 l 1
102 785 m 1
 102 787 l 1
 107 787 l 1
 107 785 l 1
 102 785 l 1
109 786 m 1
 110 786 l 1
 110 787 l 1
 109 787 l 1
 109 786 l 1
113 785 m 1
 114 785 l 1
 114 787 l 1
 113 787 l 1
 113 785 l 1
114 785 m 1
 114 787 l 1
 115 787 l 1
 115 785 l 1
 114 785 l 1
117 785 m 1
 117 787 l 1
 118 787 l 1
 118 785 l 1
 117 785 l 1
118 785 m 1
 119 785 l 1
 119 787 l 1
 118 787 l 1
 118 785 l 1
121 785 m 1
 122 785 l 1
 122 787 l 1
 121 787 l 1
 121 785 l 1
122 785 m 1
 122 787 l 1
 123 787 l 1
 123 785 l 1
 122 785 l 1
125 785 m 1
 125 787 l 1
 126 787 l 1
 126 785 l 1
 125 785 l 1
126 785 m 1
 127 785 l 1
 127 787 l 1
 126 787 l 1
 126 785 l 1
132 785 m 1
 132 787 l 1
 135 787 l 1
 135 785 l 1
 132 785 l 1
137 785 m 1
 137 787 l 1
 140 787 l 1
 140 785 l 1
 137 785 l 1
150 785 m 1
 150 787 l 1
 153 787 l 1
 153 785 l 1
 150 785 l 1
19 785 m 1
 20 785 l 1
 20 786 l 1
 19 786 l 1
 19 785 l 1
29 785 m 1
 30 785 l 1
 30 786 l 1
 29 786 l 1
 29 785 l 1
36 785 m 1
 37 785 l 1
 37 786 l 1
 36 786 l 1
 36 785 l 1
45 785 m 1
 46 785 l 1
 46 786 l 1
 45 786 l 1
 45 785 l 1
60 785 m 1
 61 785 l 1
 61 786 l 1
 60 786 l 1
 60 785 l 1
67 785 m 1
 68 785 l 1
 68 786 l 1
 67 786 l 1
 67 785 l 1
77 785 m 1
 78 785 l 1
 78 786 l 1
 77 786 l 1
 77 785 l 1
85 785 m 1
 85 786 l 1
 87 786 l 1
 87 785 l 1
 85 785 l 1
87 785 m 1
 88 785 l 1
 88 786 l 1
 87 786 l 1
 87 785 l 1
99 785 m 1
 100 785 l 1
 100 786 l 1
 99 786 l 1
 99 785 l 1
108 785 m 1
 109 785 l 1
 109 786 l 1
 108 786 l 1
 108 785 l 1
131 785 m 1
 132 785 l 1
 132 786 l 1
 131 786 l 1
 131 785 l 1
140 785 m 1
 141 785 l 1
 141 786 l 1
 140 786 l 1
 140 785 l 1
147 785 m 1
 148 785 l 1
 148 786 l 1
 147 786 l 1
 147 785 l 1
154 785 m 1
 154 786 l 1
 155 786 l 1
 155 785 l 1
 154 785 l 1
155 785 m 1
 156 785 l 1
 156 786 l 1
 155 786 l 1
 155 785 l 1
2 783 m 1
 5 783 l 1
 5 785 l 1
 2 785 l 1
 2 783 l 1
11 783 m 1
 14 783 l 1
 14 785 l 1
 11 785 l 1
 11 783 l 1
20 784 m 1
 29 784 l 1
 29 785 l 1
 20 785 l 1
 20 784 l 1
37 784 m 1
 45 784 l 1
 45 785 l 1
 37 785 l 1
 37 784 l 1
50 784 m 1
 60 784 l 1
 60 785 l 1
 50 785 l 1
 50 784 l 1
68 784 m 1
 77 784 l 1
 77 785 l 1
 68 785 l 1
 68 784 l 1
83 783 m 1
 87 783 l 1
 87 785 l 1
 83 785 l 1
 83 783 l 1
100 784 m 1
 108 784 l 1
 108 785 l 1
 100 785 l 1
 100 784 l 1
114 783 m 1
 118 783 l 1
 118 785 l 1
 114 785 l 1
 114 783 l 1
122 784 m 1
 126 784 l 1
 126 785 l 1
 122 785 l 1
 122 784 l 1
132 784 m 1
 140 784 l 1
 140 785 l 1
 132 785 l 1
 132 784 l 1
148 783 m 1
 155 783 l 1
 155 785 l 1
 148 785 l 1
 148 783 l 1
5 783 m 1
 6 783 l 1
 6 784 l 1
 5 784 l 1
 5 783 l 1
20 783 m 1
 24 783 l 1
 24 784 l 1
 20 784 l 1
 20 783 l 1
35 783 m 1
 39 783 l 1
 39 784 l 1
 35 784 l 1
 35 783 l 1
41 783 m 1
 45 783 l 1
 45 784 l 1
 41 784 l 1
 41 783 l 1
52 783 m 1
 57 783 l 1
 57 784 l 1
 52 784 l 1
 52 783 l 1
68 783 m 1
 76 783 l 1
 76 784 l 1
 68 784 l 1
 68 783 l 1
82 783 m 1
 83 783 l 1
 83 784 l 1
 82 784 l 1
 82 783 l 1
87 783 m 1
 91 783 l 1
 91 784 l 1
 87 784 l 1
 87 783 l 1
100 783 m 1
 107 783 l 1
 107 784 l 1
 100 784 l 1
 100 783 l 1
118 783 m 1
 123 783 l 1
 123 784 l 1
 118 784 l 1
 118 783 l 1
132 783 m 1
 139 783 l 1
 139 784 l 1
 132 784 l 1
 132 783 l 1
155 783 m 1
 156 783 l 1
 156 784 l 1
 155 784 l 1
 155 783 l 1
1 782 m 1
 2 782 l 1
 2 783 l 1
 1 783 l 1
 1 782 l 1
2 782 m 1
 2 783 l 1
 6 783 l 1
 6 782 l 1
 2 782 l 1
6 778 m 1
 7 778 l 1
 7 783 l 1
 6 783 l 1
 6 778 l 1
10 782 m 1
 11 782 l 1
 11 783 l 1
 10 783 l 1
 10 782 l 1
11 782 m 1
 11 783 l 1
 14 783 l 1
 14 782 l 1
 11 782 l 1
14 782 m 1
 15 782 l 1
 15 783 l 1
 14 783 l 1
 14 782 l 1
19 770 m 1
 20 770 l 1
 20 783 l 1
 19 783 l 1
 19 770 l 1
20 782 m 1
 20 783 l 1
 24 783 l 1
 24 782 l 1
 20 782 l 1
24 782 m 1
 25 782 l 1
 25 783 l 1
 24 783 l 1
 24 782 l 1
34 782 m 1
 35 782 l 1
 35 783 l 1
 34 783 l 1
 34 782 l 1
35 781 m 1
 35 783 l 1
 39 783 l 1
 39 781 l 1
 35 781 l 1
39 782 m 1
 41 782 l 1
 41 783 l 1
 39 783 l 1
 39 782 l 1
41 781 m 1
 41 783 l 1
 45 783 l 1
 45 781 l 1
 41 781 l 1
45 782 m 1
 46 782 l 1
 46 783 l 1
 45 783 l 1
 45 782 l 1
51 782 m 1
 52 782 l 1
 52 783 l 1
 51 783 l 1
 51 782 l 1
52 781 m 1
 52 783 l 1
 57 783 l 1
 57 781 l 1
 52 781 l 1
57 782 m 1
 59 782 l 1
 59 783 l 1
 57 783 l 1
 57 782 l 1
67 782 m 1
 68 782 l 1
 68 783 l 1
 67 783 l 1
 67 782 l 1
68 781 m 1
 68 783 l 1
 76 783 l 1
 76 781 l 1
 68 781 l 1
76 782 m 1
 77 782 l 1
 77 783 l 1
 76 783 l 1
 76 782 l 1
81 782 m 1
 82 782 l 1
 82 783 l 1
 81 783 l 1
 81 782 l 1
82 782 m 1
 82 783 l 1
 91 783 l 1
 91 782 l 1
 82 782 l 1
91 782 m 1
 92 782 l 1
 92 783 l 1
 91 783 l 1
 91 782 l 1
99 782 m 1
 100 782 l 1
 100 783 l 1
 99 783 l 1
 99 782 l 1
100 781 m 1
 100 783 l 1
 107 783 l 1
 107 781 l 1
 100 781 l 1
107 782 m 1
 108 782 l 1
 108 783 l 1
 107 783 l 1
 107 782 l 1
113 782 m 1
 114 782 l 1
 114 783 l 1
 113 783 l 1
 113 782 l 1
114 782 m 1
 114 783 l 1
 123 783 l 1
 123 782 l 1
 114 782 l 1
123 782 m 1
 124 782 l 1
 124 783 l 1
 123 783 l 1
 123 782 l 1
131 782 m 1
 132 782 l 1
 132 783 l 1
 131 783 l 1
 131 782 l 1
132 781 m 1
 132 783 l 1
 139 783 l 1
 139 781 l 1
 132 781 l 1
139 782 m 1
 140 782 l 1
 140 783 l 1
 139 783 l 1
 139 782 l 1
147 782 m 1
 148 782 l 1
 148 783 l 1
 147 783 l 1
 147 782 l 1
148 781 m 1
 148 783 l 1
 156 783 l 1
 156 781 l 1
 148 781 l 1
156 782 m 1
 157 782 l 1
 157 783 l 1
 156 783 l 1
 156 782 l 1
2 781 m 1
 3 781 l 1
 3 782 l 1
 2 782 l 1
 2 781 l 1
3 781 m 1
 3 782 l 1
 6 782 l 1
 6 781 l 1
 3 781 l 1
9 781 m 1
 10 781 l 1
 10 782 l 1
 9 782 l 1
 9 781 l 1
10 781 m 1
 10 782 l 1
 13 782 l 1
 13 781 l 1
 10 781 l 1
13 781 m 1
 14 781 l 1
 14 782 l 1
 13 782 l 1
 13 781 l 1
20 781 m 1
 20 782 l 1
 23 782 l 1
 23 781 l 1
 20 781 l 1
23 781 m 1
 24 781 l 1
 24 782 l 1
 23 782 l 1
 23 781 l 1
33 771 m 1
 34 771 l 1
 34 782 l 1
 33 782 l 1
 33 771 l 1
34 769 m 1
 34 782 l 1
 35 782 l 1
 35 769 l 1
 34 769 l 1
39 776 m 1
 39 782 l 1
 41 782 l 1
 41 776 l 1
 39 776 l 1
45 769 m 1
 45 782 l 1
 46 782 l 1
 46 769 l 1
 45 769 l 1
46 771 m 1
 47 771 l 1
 47 782 l 1
 46 782 l 1
 46 771 l 1
50 771 m 1
 51 771 l 1
 51 782 l 1
 50 782 l 1
 50 771 l 1
51 769 m 1
 51 782 l 1
 52 782 l 1
 52 769 l 1
 51 769 l 1
57 780 m 1
 57 782 l 1
 59 782 l 1
 59 780 l 1
 57 780 l 1
59 781 m 1
 60 781 l 1
 60 782 l 1
 59 782 l 1
 59 781 l 1
66 781 m 1
 67 781 l 1
 67 782 l 1
 66 782 l 1
 66 781 l 1
67 779 m 1
 67 782 l 1
 68 782 l 1
 68 779 l 1
 67 779 l 1
76 779 m 1
 76 782 l 1
 77 782 l 1
 77 779 l 1
 76 779 l 1
77 781 m 1
 78 781 l 1
 78 782 l 1
 77 782 l 1
 77 781 l 1
82 781 m 1
 83 781 l 1
 83 782 l 1
 82 782 l 1
 82 781 l 1
83 781 m 1
 83 782 l 1
 92 782 l 1
 92 781 l 1
 83 781 l 1
92 781 m 1
 93 781 l 1
 93 782 l 1
 92 782 l 1
 92 781 l 1
98 781 m 1
 99 781 l 1
 99 782 l 1
 98 782 l 1
 98 781 l 1
99 779 m 1
 99 782 l 1
 100 782 l 1
 100 779 l 1
 99 779 l 1
107 779 m 1
 107 782 l 1
 108 782 l 1
 108 779 l 1
 107 779 l 1
108 781 m 1
 109 781 l 1
 109 782 l 1
 108 782 l 1
 108 781 l 1
114 781 m 1
 115 781 l 1
 115 782 l 1
 114 782 l 1
 114 781 l 1
115 781 m 1
 115 782 l 1
 124 782 l 1
 124 781 l 1
 115 781 l 1
124 781 m 1
 125 781 l 1
 125 782 l 1
 124 782 l 1
 124 781 l 1
130 779 m 1
 131 779 l 1
 131 782 l 1
 130 782 l 1
 130 779 l 1
131 779 m 1
 131 782 l 1
 132 782 l 1
 132 779 l 1
 131 779 l 1
139 779 m 1
 139 782 l 1
 140 782 l 1
 140 779 l 1
 139 779 l 1
140 779 m 1
 141 779 l 1
 141 782 l 1
 140 782 l 1
 140 779 l 1
146 780 m 1
 147 780 l 1
 147 782 l 1
 146 782 l 1
 146 780 l 1
147 780 m 1
 147 782 l 1
 148 782 l 1
 148 780 l 1
 147 780 l 1
156 780 m 1
 156 782 l 1
 157 782 l 1
 157 780 l 1
 156 780 l 1
157 780 m 1
 158 780 l 1
 158 782 l 1
 157 782 l 1
 157 780 l 1
3 771 m 1
 4 771 l 1
 4 781 l 1
 3 781 l 1
 3 771 l 1
4 769 m 1
 4 781 l 1
 6 781 l 1
 6 769 l 1
 4 769 l 1
8 780 m 1
 9 780 l 1
 9 781 l 1
 8 781 l 1
 8 780 l 1
9 780 m 1
 9 781 l 1
 12 781 l 1
 12 780 l 1
 9 780 l 1
12 780 m 1
 13 780 l 1
 13 781 l 1
 12 781 l 1
 12 780 l 1
20 770 m 1
 20 781 l 1
 22 781 l 1
 22 770 l 1
 20 770 l 1
22 772 m 1
 23 772 l 1
 23 781 l 1
 22 781 l 1
 22 772 l 1
35 780 m 1
 35 781 l 1
 37 781 l 1
 37 780 l 1
 35 780 l 1
37 780 m 1
 38 780 l 1
 38 781 l 1
 37 781 l 1
 37 780 l 1
38 780 m 1
 38 781 l 1
 39 781 l 1
 39 780 l 1
 38 780 l 1
41 780 m 1
 41 781 l 1
 42 781 l 1
 42 780 l 1
 41 780 l 1
42 780 m 1
 43 780 l 1
 43 781 l 1
 42 781 l 1
 42 780 l 1
43 780 m 1
 43 781 l 1
 45 781 l 1
 45 780 l 1
 43 780 l 1
52 780 m 1
 52 781 l 1
 54 781 l 1
 54 780 l 1
 52 780 l 1
54 780 m 1
 57 780 l 1
 57 781 l 1
 54 781 l 1
 54 780 l 1
59 769 m 1
 59 781 l 1
 60 781 l 1
 60 769 l 1
 59 769 l 1
60 780 m 1
 61 780 l 1
 61 781 l 1
 60 781 l 1
 60 780 l 1
65 779 m 1
 66 779 l 1
 66 781 l 1
 65 781 l 1
 65 779 l 1
66 771 m 1
 66 781 l 1
 67 781 l 1
 67 771 l 1
 66 771 l 1
68 780 m 1
 68 781 l 1
 69 781 l 1
 69 780 l 1
 68 780 l 1
69 780 m 1
 75 780 l 1
 75 781 l 1
 69 781 l 1
 69 780 l 1
75 780 m 1
 75 781 l 1
 76 781 l 1
 76 780 l 1
 75 780 l 1
77 771 m 1
 77 781 l 1
 78 781 l 1
 78 771 l 1
 77 771 l 1
78 779 m 1
 79 779 l 1
 79 781 l 1
 78 781 l 1
 78 779 l 1
83 771 m 1
 84 771 l 1
 84 781 l 1
 83 781 l 1
 83 771 l 1
84 769 m 1
 84 781 l 1
 86 781 l 1
 86 769 l 1
 84 769 l 1
86 780 m 1
 90 780 l 1
 90 781 l 1
 86 781 l 1
 86 780 l 1
90 780 m 1
 90 781 l 1
 93 781 l 1
 93 780 l 1
 90 780 l 1
93 776 m 1
 94 776 l 1
 94 781 l 1
 93 781 l 1
 93 776 l 1
97 779 m 1
 98 779 l 1
 98 781 l 1
 97 781 l 1
 97 779 l 1
98 771 m 1
 98 781 l 1
 99 781 l 1
 99 771 l 1
 98 771 l 1
100 780 m 1
 100 781 l 1
 101 781 l 1
 101 780 l 1
 100 780 l 1
101 780 m 1
 106 780 l 1
 106 781 l 1
 101 781 l 1
 101 780 l 1
106 780 m 1
 106 781 l 1
 107 781 l 1
 107 780 l 1
 106 780 l 1
108 769 m 1
 108 781 l 1
 109 781 l 1
 109 769 l 1
 108 769 l 1
109 779 m 1
 110 779 l 1
 110 781 l 1
 109 781 l 1
 109 779 l 1
115 771 m 1
 116 771 l 1
 116 781 l 1
 115 781 l 1
 115 771 l 1
116 769 m 1
 116 781 l 1
 118 781 l 1
 118 769 l 1
 116 769 l 1
118 780 m 1
 122 780 l 1
 122 781 l 1
 118 781 l 1
 118 780 l 1
122 780 m 1
 122 781 l 1
 125 781 l 1
 125 780 l 1
 122 780 l 1
125 777 m 1
 126 777 l 1
 126 781 l 1
 125 781 l 1
 125 777 l 1
132 777 m 1
 132 781 l 1
 133 781 l 1
 133 777 l 1
 132 777 l 1
133 780 m 1
 138 780 l 1
 138 781 l 1
 133 781 l 1
 133 780 l 1
138 780 m 1
 138 781 l 1
 139 781 l 1
 139 780 l 1
 138 780 l 1
148 780 m 1
 151 780 l 1
 151 781 l 1
 148 781 l 1
 148 780 l 1
151 769 m 1
 151 781 l 1
 153 781 l 1
 153 769 l 1
 151 769 l 1
153 780 m 1
 156 780 l 1
 156 781 l 1
 153 781 l 1
 153 780 l 1
7 779 m 1
 8 779 l 1
 8 780 l 1
 7 780 l 1
 7 779 l 1
8 779 m 1
 8 780 l 1
 11 780 l 1
 11 779 l 1
 8 779 l 1
11 779 m 1
 12 779 l 1
 12 780 l 1
 11 780 l 1
 11 779 l 1
35 769 m 1
 35 780 l 1
 36 780 l 1
 36 769 l 1
 35 769 l 1
36 771 m 1
 37 771 l 1
 37 780 l 1
 36 780 l 1
 36 771 l 1
38 778 m 1
 39 778 l 1
 39 780 l 1
 38 780 l 1
 38 778 l 1
41 778 m 1
 42 778 l 1
 42 780 l 1
 41 780 l 1
 41 778 l 1
43 771 m 1
 44 771 l 1
 44 780 l 1
 43 780 l 1
 43 771 l 1
44 769 m 1
 44 780 l 1
 45 780 l 1
 45 769 l 1
 44 769 l 1
52 769 m 1
 52 780 l 1
 53 780 l 1
 53 769 l 1
 52 769 l 1
53 771 m 1
 54 771 l 1
 54 780 l 1
 53 780 l 1
 53 771 l 1
57 779 m 1
 58 779 l 1
 58 780 l 1
 57 780 l 1
 57 779 l 1
58 779 m 1
 58 780 l 1
 59 780 l 1
 59 779 l 1
 58 779 l 1
60 769 m 1
 60 780 l 1
 61 780 l 1
 61 769 l 1
 60 769 l 1
61 771 m 1
 62 771 l 1
 62 780 l 1
 61 780 l 1
 61 771 l 1
68 779 m 1
 69 779 l 1
 69 780 l 1
 68 780 l 1
 68 779 l 1
75 779 m 1
 76 779 l 1
 76 780 l 1
 75 780 l 1
 75 779 l 1
86 777 m 1
 87 777 l 1
 87 780 l 1
 86 780 l 1
 86 777 l 1
90 777 m 1
 91 777 l 1
 91 780 l 1
 90 780 l 1
 90 777 l 1
91 776 m 1
 91 780 l 1
 93 780 l 1
 93 776 l 1
 91 776 l 1
100 779 m 1
 101 779 l 1
 101 780 l 1
 100 780 l 1
 100 779 l 1
106 779 m 1
 107 779 l 1
 107 780 l 1
 106 780 l 1
 106 779 l 1
118 778 m 1
 119 778 l 1
 119 780 l 1
 118 780 l 1
 118 778 l 1
122 778 m 1
 123 778 l 1
 123 780 l 1
 122 780 l 1
 122 778 l 1
123 777 m 1
 123 780 l 1
 125 780 l 1
 125 777 l 1
 123 777 l 1
133 779 m 1
 134 779 l 1
 134 780 l 1
 133 780 l 1
 133 779 l 1
138 779 m 1
 139 779 l 1
 139 780 l 1
 138 780 l 1
 138 779 l 1
147 779 m 1
 148 779 l 1
 148 780 l 1
 147 780 l 1
 147 779 l 1
150 777 m 1
 151 777 l 1
 151 780 l 1
 150 780 l 1
 150 777 l 1
153 777 m 1
 154 777 l 1
 154 780 l 1
 153 780 l 1
 153 777 l 1
156 779 m 1
 157 779 l 1
 157 780 l 1
 156 780 l 1
 156 779 l 1
7 778 m 1
 7 779 l 1
 10 779 l 1
 10 778 l 1
 7 778 l 1
10 778 m 1
 11 778 l 1
 11 779 l 1
 10 779 l 1
 10 778 l 1
58 771 m 1
 59 771 l 1
 59 779 l 1
 58 779 l 1
 58 771 l 1
64 773 m 1
 65 773 l 1
 65 779 l 1
 64 779 l 1
 64 773 l 1
65 773 m 1
 65 779 l 1
 66 779 l 1
 66 773 l 1
 65 773 l 1
67 773 m 1
 68 773 l 1
 68 779 l 1
 67 779 l 1
 67 773 l 1
76 773 m 1
 77 773 l 1
 77 779 l 1
 76 779 l 1
 76 773 l 1
78 773 m 1
 78 779 l 1
 79 779 l 1
 79 773 l 1
 78 773 l 1
79 773 m 1
 80 773 l 1
 80 779 l 1
 79 779 l 1
 79 773 l 1
96 773 m 1
 97 773 l 1
 97 779 l 1
 96 779 l 1
 96 773 l 1
97 773 m 1
 97 779 l 1
 98 779 l 1
 98 773 l 1
 97 773 l 1
99 773 m 1
 100 773 l 1
 100 779 l 1
 99 779 l 1
 99 773 l 1
107 773 m 1
 108 773 l 1
 108 779 l 1
 107 779 l 1
 107 773 l 1
109 773 m 1
 109 779 l 1
 110 779 l 1
 110 773 l 1
 109 773 l 1
110 773 m 1
 111 773 l 1
 111 779 l 1
 110 779 l 1
 110 773 l 1
131 777 m 1
 132 777 l 1
 132 779 l 1
 131 779 l 1
 131 777 l 1
133 776 m 1
 133 779 l 1
 134 779 l 1
 134 776 l 1
 133 776 l 1
134 778 m 1
 136 778 l 1
 136 779 l 1
 134 779 l 1
 134 778 l 1
139 778 m 1
 140 778 l 1
 140 779 l 1
 139 779 l 1
 139 778 l 1
6 777 m 1
 6 778 l 1
 9 778 l 1
 9 777 l 1
 6 777 l 1
9 777 m 1
 10 777 l 1
 10 778 l 1
 9 778 l 1
 9 777 l 1
37 777 m 1
 38 777 l 1
 38 778 l 1
 37 778 l 1
 37 777 l 1
38 777 m 1
 38 778 l 1
 39 778 l 1
 39 777 l 1
 38 777 l 1
41 777 m 1
 41 778 l 1
 42 778 l 1
 42 777 l 1
 41 777 l 1
42 777 m 1
 43 777 l 1
 43 778 l 1
 42 778 l 1
 42 777 l 1
118 774 m 1
 118 778 l 1
 119 778 l 1
 119 774 l 1
 118 774 l 1
119 777 m 1
 122 777 l 1
 122 778 l 1
 119 778 l 1
 119 777 l 1
122 775 m 1
 122 778 l 1
 123 778 l 1
 123 775 l 1
 122 775 l 1
134 776 m 1
 134 778 l 1
 136 778 l 1
 136 776 l 1
 134 776 l 1
136 777 m 1
 138 777 l 1
 138 778 l 1
 136 778 l 1
 136 777 l 1
6 774 m 1
 6 777 l 1
 8 777 l 1
 8 774 l 1
 6 774 l 1
8 775 m 1
 9 775 l 1
 9 777 l 1
 8 777 l 1
 8 775 l 1
38 776 m 1
 39 776 l 1
 39 777 l 1
 38 777 l 1
 38 776 l 1
41 776 m 1
 42 776 l 1
 42 777 l 1
 41 777 l 1
 41 776 l 1
86 774 m 1
 86 777 l 1
 87 777 l 1
 87 774 l 1
 86 774 l 1
87 776 m 1
 90 776 l 1
 90 777 l 1
 87 777 l 1
 87 776 l 1
90 774 m 1
 90 777 l 1
 91 777 l 1
 91 774 l 1
 90 774 l 1
119 775 m 1
 119 777 l 1
 122 777 l 1
 122 775 l 1
 119 775 l 1
123 776 m 1
 123 777 l 1
 124 777 l 1
 124 776 l 1
 123 776 l 1
124 776 m 1
 125 776 l 1
 125 777 l 1
 124 777 l 1
 124 776 l 1
132 776 m 1
 133 776 l 1
 133 777 l 1
 132 777 l 1
 132 776 l 1
136 775 m 1
 136 777 l 1
 138 777 l 1
 138 775 l 1
 136 775 l 1
138 776 m 1
 139 776 l 1
 139 777 l 1
 138 777 l 1
 138 776 l 1
149 775 m 1
 150 775 l 1
 150 777 l 1
 149 777 l 1
 149 775 l 1
150 775 m 1
 150 777 l 1
 151 777 l 1
 151 775 l 1
 150 775 l 1
153 775 m 1
 153 777 l 1
 154 777 l 1
 154 775 l 1
 153 775 l 1
154 775 m 1
 155 775 l 1
 155 777 l 1
 154 777 l 1
 154 775 l 1
39 775 m 1
 41 775 l 1
 41 776 l 1
 39 776 l 1
 39 775 l 1
87 774 m 1
 87 776 l 1
 90 776 l 1
 90 774 l 1
 87 774 l 1
91 775 m 1
 91 776 l 1
 92 776 l 1
 92 775 l 1
 91 775 l 1
92 775 m 1
 93 775 l 1
 93 776 l 1
 92 776 l 1
 92 775 l 1
123 775 m 1
 124 775 l 1
 124 776 l 1
 123 776 l 1
 123 775 l 1
133 775 m 1
 135 775 l 1
 135 776 l 1
 133 776 l 1
 133 775 l 1
135 775 m 1
 135 776 l 1
 136 776 l 1
 136 775 l 1
 135 775 l 1
138 774 m 1
 138 776 l 1
 139 776 l 1
 139 774 l 1
 138 774 l 1
139 775 m 1
 140 775 l 1
 140 776 l 1
 139 776 l 1
 139 775 l 1
8 772 m 1
 8 775 l 1
 9 775 l 1
 9 772 l 1
 8 772 l 1
9 774 m 1
 10 774 l 1
 10 775 l 1
 9 775 l 1
 9 774 l 1
28 774 m 1
 30 774 l 1
 30 775 l 1
 28 775 l 1
 28 774 l 1
91 774 m 1
 92 774 l 1
 92 775 l 1
 91 775 l 1
 91 774 l 1
119 773 m 1
 119 775 l 1
 121 775 l 1
 121 773 l 1
 119 773 l 1
121 774 m 1
 123 774 l 1
 123 775 l 1
 121 775 l 1
 121 774 l 1
135 774 m 1
 137 774 l 1
 137 775 l 1
 135 775 l 1
 135 774 l 1
137 774 m 1
 137 775 l 1
 138 775 l 1
 138 774 l 1
 137 774 l 1
139 769 m 1
 139 775 l 1
 140 775 l 1
 140 769 l 1
 139 769 l 1
140 774 m 1
 141 774 l 1
 141 775 l 1
 140 775 l 1
 140 774 l 1
150 771 m 1
 151 771 l 1
 151 775 l 1
 150 775 l 1
 150 771 l 1
153 771 m 1
 154 771 l 1
 154 775 l 1
 153 775 l 1
 153 771 l 1
6 769 m 1
 7 769 l 1
 7 774 l 1
 6 774 l 1
 6 769 l 1
7 773 m 1
 7 774 l 1
 8 774 l 1
 8 773 l 1
 7 773 l 1
9 771 m 1
 9 774 l 1
 10 774 l 1
 10 771 l 1
 9 771 l 1
10 773 m 1
 11 773 l 1
 11 774 l 1
 10 774 l 1
 10 773 l 1
27 771 m 1
 28 771 l 1
 28 774 l 1
 27 774 l 1
 27 771 l 1
28 770 m 1
 28 774 l 1
 30 774 l 1
 30 770 l 1
 28 770 l 1
30 770 m 1
 31 770 l 1
 31 774 l 1
 30 774 l 1
 30 770 l 1
86 773 m 1
 91 773 l 1
 91 774 l 1
 86 774 l 1
 86 773 l 1
118 769 m 1
 119 769 l 1
 119 774 l 1
 118 774 l 1
 118 769 l 1
121 771 m 1
 121 774 l 1
 122 774 l 1
 122 771 l 1
 121 771 l 1
122 773 m 1
 123 773 l 1
 123 774 l 1
 122 774 l 1
 122 773 l 1
131 773 m 1
 132 773 l 1
 132 774 l 1
 131 774 l 1
 131 773 l 1
137 773 m 1
 139 773 l 1
 139 774 l 1
 137 774 l 1
 137 773 l 1
140 770 m 1
 140 774 l 1
 141 774 l 1
 141 770 l 1
 140 770 l 1
141 770 m 1
 142 770 l 1
 142 774 l 1
 141 774 l 1
 141 770 l 1
7 772 m 1
 8 772 l 1
 8 773 l 1
 7 773 l 1
 7 772 l 1
10 770 m 1
 10 773 l 1
 11 773 l 1
 11 770 l 1
 10 770 l 1
11 772 m 1
 12 772 l 1
 12 773 l 1
 11 773 l 1
 11 772 l 1
65 771 m 1
 66 771 l 1
 66 773 l 1
 65 773 l 1
 65 771 l 1
67 770 m 1
 67 773 l 1
 68 773 l 1
 68 770 l 1
 67 770 l 1
68 772 m 1
 69 772 l 1
 69 773 l 1
 68 773 l 1
 68 772 l 1
75 772 m 1
 76 772 l 1
 76 773 l 1
 75 773 l 1
 75 772 l 1
76 770 m 1
 76 773 l 1
 77 773 l 1
 77 770 l 1
 76 770 l 1
78 771 m 1
 79 771 l 1
 79 773 l 1
 78 773 l 1
 78 771 l 1
86 771 m 1
 87 771 l 1
 87 773 l 1
 86 773 l 1
 86 771 l 1
97 771 m 1
 98 771 l 1
 98 773 l 1
 97 773 l 1
 97 771 l 1
99 770 m 1
 99 773 l 1
 100 773 l 1
 100 770 l 1
 99 770 l 1
100 772 m 1
 101 772 l 1
 101 773 l 1
 100 773 l 1
 100 772 l 1
106 772 m 1
 107 772 l 1
 107 773 l 1
 106 773 l 1
 106 772 l 1
107 770 m 1
 107 773 l 1
 108 773 l 1
 108 770 l 1
 107 770 l 1
109 771 m 1
 110 771 l 1
 110 773 l 1
 109 773 l 1
 109 771 l 1
119 772 m 1
 120 772 l 1
 120 773 l 1
 119 773 l 1
 119 772 l 1
120 772 m 1
 120 773 l 1
 121 773 l 1
 121 772 l 1
 120 772 l 1
122 770 m 1
 122 773 l 1
 123 773 l 1
 123 770 l 1
 122 770 l 1
123 772 m 1
 124 772 l 1
 124 773 l 1
 123 773 l 1
 123 772 l 1
130 770 m 1
 131 770 l 1
 131 773 l 1
 130 773 l 1
 130 770 l 1
131 770 m 1
 131 773 l 1
 132 773 l 1
 132 770 l 1
 131 770 l 1
132 772 m 1
 133 772 l 1
 133 773 l 1
 132 773 l 1
 132 772 l 1
138 771 m 1
 139 771 l 1
 139 773 l 1
 138 773 l 1
 138 771 l 1
8 771 m 1
 9 771 l 1
 9 772 l 1
 8 772 l 1
 8 771 l 1
11 769 m 1
 11 772 l 1
 12 772 l 1
 12 769 l 1
 11 769 l 1
12 771 m 1
 13 771 l 1
 13 772 l 1
 12 772 l 1
 12 771 l 1
22 769 m 1
 22 772 l 1
 23 772 l 1
 23 769 l 1
 22 769 l 1
23 771 m 1
 27 771 l 1
 27 772 l 1
 23 772 l 1
 23 771 l 1
68 769 m 1
 68 772 l 1
 69 772 l 1
 69 769 l 1
 68 769 l 1
69 771 m 1
 75 771 l 1
 75 772 l 1
 69 772 l 1
 69 771 l 1
75 769 m 1
 75 772 l 1
 76 772 l 1
 76 769 l 1
 75 769 l 1
100 769 m 1
 100 772 l 1
 101 772 l 1
 101 769 l 1
 100 769 l 1
101 771 m 1
 106 771 l 1
 106 772 l 1
 101 772 l 1
 101 771 l 1
106 769 m 1
 106 772 l 1
 107 772 l 1
 107 769 l 1
 106 769 l 1
120 771 m 1
 121 771 l 1
 121 772 l 1
 120 772 l 1
 120 771 l 1
123 769 m 1
 123 772 l 1
 124 772 l 1
 124 769 l 1
 123 769 l 1
124 771 m 1
 125 771 l 1
 125 772 l 1
 124 772 l 1
 124 771 l 1
132 769 m 1
 132 772 l 1
 133 772 l 1
 133 769 l 1
 132 769 l 1
133 771 m 1
 138 771 l 1
 138 772 l 1
 133 772 l 1
 133 771 l 1
2 770 m 1
 3 770 l 1
 3 771 l 1
 2 771 l 1
 2 770 l 1
3 769 m 1
 3 771 l 1
 4 771 l 1
 4 769 l 1
 3 769 l 1
9 770 m 1
 10 770 l 1
 10 771 l 1
 9 771 l 1
 9 770 l 1
12 769 m 1
 12 771 l 1
 13 771 l 1
 13 769 l 1
 12 769 l 1
13 770 m 1
 14 770 l 1
 14 771 l 1
 13 771 l 1
 13 770 l 1
23 769 m 1
 23 771 l 1
 28 771 l 1
 28 769 l 1
 23 769 l 1
32 769 m 1
 33 769 l 1
 33 771 l 1
 32 771 l 1
 32 769 l 1
33 769 m 1
 33 771 l 1
 34 771 l 1
 34 769 l 1
 33 769 l 1
36 769 m 1
 36 771 l 1
 37 771 l 1
 37 769 l 1
 36 769 l 1
37 769 m 1
 38 769 l 1
 38 771 l 1
 37 771 l 1
 37 769 l 1
42 769 m 1
 43 769 l 1
 43 771 l 1
 42 771 l 1
 42 769 l 1
43 769 m 1
 43 771 l 1
 44 771 l 1
 44 769 l 1
 43 769 l 1
46 769 m 1
 46 771 l 1
 47 771 l 1
 47 769 l 1
 46 769 l 1
47 769 m 1
 48 769 l 1
 48 771 l 1
 47 771 l 1
 47 769 l 1
49 769 m 1
 50 769 l 1
 50 771 l 1
 49 771 l 1
 49 769 l 1
50 769 m 1
 50 771 l 1
 51 771 l 1
 51 769 l 1
 50 769 l 1
53 769 m 1
 53 771 l 1
 54 771 l 1
 54 769 l 1
 53 769 l 1
54 769 m 1
 55 769 l 1
 55 771 l 1
 54 771 l 1
 54 769 l 1
57 769 m 1
 58 769 l 1
 58 771 l 1
 57 771 l 1
 57 769 l 1
58 769 m 1
 58 771 l 1
 59 771 l 1
 59 769 l 1
 58 769 l 1
61 769 m 1
 61 771 l 1
 62 771 l 1
 62 769 l 1
 61 769 l 1
62 769 m 1
 63 769 l 1
 63 771 l 1
 62 771 l 1
 62 769 l 1
66 770 m 1
 67 770 l 1
 67 771 l 1
 66 771 l 1
 66 770 l 1
69 769 m 1
 69 771 l 1
 75 771 l 1
 75 769 l 1
 69 769 l 1
77 770 m 1
 78 770 l 1
 78 771 l 1
 77 771 l 1
 77 770 l 1
82 769 m 1
 83 769 l 1
 83 771 l 1
 82 771 l 1
 82 769 l 1
83 769 m 1
 83 771 l 1
 84 771 l 1
 84 769 l 1
 83 769 l 1
86 769 m 1
 86 771 l 1
 87 771 l 1
 87 769 l 1
 86 769 l 1
87 769 m 1
 88 769 l 1
 88 771 l 1
 87 771 l 1
 87 769 l 1
98 770 m 1
 99 770 l 1
 99 771 l 1
 98 771 l 1
 98 770 l 1
101 769 m 1
 101 771 l 1
 106 771 l 1
 106 769 l 1
 101 769 l 1
109 769 m 1
 109 771 l 1
 110 771 l 1
 110 769 l 1
 109 769 l 1
110 770 m 1
 111 770 l 1
 111 771 l 1
 110 771 l 1
 110 770 l 1
114 770 m 1
 115 770 l 1
 115 771 l 1
 114 771 l 1
 114 770 l 1
115 769 m 1
 115 771 l 1
 116 771 l 1
 116 769 l 1
 115 769 l 1
121 770 m 1
 122 770 l 1
 122 771 l 1
 121 771 l 1
 121 770 l 1
124 769 m 1
 124 771 l 1
 125 771 l 1
 125 769 l 1
 124 769 l 1
125 770 m 1
 126 770 l 1
 126 771 l 1
 125 771 l 1
 125 770 l 1
133 769 m 1
 133 771 l 1
 139 771 l 1
 139 769 l 1
 133 769 l 1
149 770 m 1
 150 770 l 1
 150 771 l 1
 149 771 l 1
 149 770 l 1
150 769 m 1
 150 771 l 1
 151 771 l 1
 151 769 l 1
 150 769 l 1
153 769 m 1
 153 771 l 1
 154 771 l 1
 154 769 l 1
 153 769 l 1
154 770 m 1
 155 770 l 1
 155 771 l 1
 154 771 l 1
 154 770 l 1
1 769 m 1
 2 769 l 1
 2 770 l 1
 1 770 l 1
 1 769 l 1
2 769 m 1
 2 770 l 1
 3 770 l 1
 3 769 l 1
 2 769 l 1
10 769 m 1
 11 769 l 1
 11 770 l 1
 10 770 l 1
 10 769 l 1
13 769 m 1
 13 770 l 1
 14 770 l 1
 14 769 l 1
 13 769 l 1
14 769 m 1
 15 769 l 1
 15 770 l 1
 14 770 l 1
 14 769 l 1
20 769 m 1
 21 769 l 1
 21 770 l 1
 20 770 l 1
 20 769 l 1
21 769 m 1
 21 770 l 1
 22 770 l 1
 22 769 l 1
 21 769 l 1
28 769 m 1
 28 770 l 1
 29 770 l 1
 29 769 l 1
 28 769 l 1
29 769 m 1
 30 769 l 1
 30 770 l 1
 29 770 l 1
 29 769 l 1
67 769 m 1
 68 769 l 1
 68 770 l 1
 67 770 l 1
 67 769 l 1
76 769 m 1
 77 769 l 1
 77 770 l 1
 76 770 l 1
 76 769 l 1
99 769 m 1
 100 769 l 1
 100 770 l 1
 99 770 l 1
 99 769 l 1
107 769 m 1
 108 769 l 1
 108 770 l 1
 107 770 l 1
 107 769 l 1
110 769 m 1
 110 770 l 1
 111 770 l 1
 111 769 l 1
 110 769 l 1
111 769 m 1
 112 769 l 1
 112 770 l 1
 111 770 l 1
 111 769 l 1
113 769 m 1
 114 769 l 1
 114 770 l 1
 113 770 l 1
 113 769 l 1
114 769 m 1
 114 770 l 1
 115 770 l 1
 115 769 l 1
 114 769 l 1
122 769 m 1
 123 769 l 1
 123 770 l 1
 122 770 l 1
 122 769 l 1
125 769 m 1
 125 770 l 1
 126 770 l 1
 126 769 l 1
 125 769 l 1
126 769 m 1
 127 769 l 1
 127 770 l 1
 126 770 l 1
 126 769 l 1
131 769 m 1
 132 769 l 1
 132 770 l 1
 131 770 l 1
 131 769 l 1
140 769 m 1
 141 769 l 1
 141 770 l 1
 140 770 l 1
 140 769 l 1
148 769 m 1
 149 769 l 1
 149 770 l 1
 148 770 l 1
 148 769 l 1
149 769 m 1
 149 770 l 1
 150 770 l 1
 150 769 l 1
 149 769 l 1
154 769 m 1
 154 770 l 1
 155 770 l 1
 155 769 l 1
 154 769 l 1
155 769 m 1
 156 769 l 1
 156 770 l 1
 155 770 l 1
 155 769 l 1
2 767 m 1
 6 767 l 1
 6 769 l 1
 2 769 l 1
 2 767 l 1
11 767 m 1
 14 767 l 1
 14 769 l 1
 11 769 l 1
 11 767 l 1
21 768 m 1
 29 768 l 1
 29 769 l 1
 21 769 l 1
 21 768 l 1
33 767 m 1
 37 767 l 1
 37 769 l 1
 33 769 l 1
 33 767 l 1
43 767 m 1
 47 767 l 1
 47 769 l 1
 43 769 l 1
 43 767 l 1
50 768 m 1
 54 768 l 1
 54 769 l 1
 50 769 l 1
 50 768 l 1
58 768 m 1
 62 768 l 1
 62 769 l 1
 58 769 l 1
 58 768 l 1
68 768 m 1
 76 768 l 1
 76 769 l 1
 68 769 l 1
 68 768 l 1
83 767 m 1
 87 767 l 1
 87 769 l 1
 83 769 l 1
 83 767 l 1
100 768 m 1
 107 768 l 1
 107 769 l 1
 100 769 l 1
 100 768 l 1
108 768 m 1
 111 768 l 1
 111 769 l 1
 108 769 l 1
 108 768 l 1
114 768 m 1
 118 768 l 1
 118 769 l 1
 114 769 l 1
 114 768 l 1
123 768 m 1
 126 768 l 1
 126 769 l 1
 123 769 l 1
 123 768 l 1
132 768 m 1
 140 768 l 1
 140 769 l 1
 132 769 l 1
 132 768 l 1
149 768 m 1
 155 768 l 1
 155 769 l 1
 149 769 l 1
 149 768 l 1
10 767 m 1
 11 767 l 1
 11 768 l 1
 10 768 l 1
 10 767 l 1
17 767 m 1
 21 767 l 1
 21 768 l 1
 17 768 l 1
 17 767 l 1
27 767 m 1
 31 767 l 1
 31 768 l 1
 27 768 l 1
 27 767 l 1
49 767 m 1
 52 767 l 1
 52 768 l 1
 49 768 l 1
 49 767 l 1
60 767 m 1
 63 767 l 1
 63 768 l 1
 60 768 l 1
 60 767 l 1
65 767 m 1
 68 767 l 1
 68 768 l 1
 65 768 l 1
 65 767 l 1
76 767 m 1
 79 767 l 1
 79 768 l 1
 76 768 l 1
 76 767 l 1
82 767 m 1
 83 767 l 1
 83 768 l 1
 82 768 l 1
 82 767 l 1
87 767 m 1
 94 767 l 1
 94 768 l 1
 87 768 l 1
 87 767 l 1
1 765 m 1
 2 765 l 1
 2 767 l 1
 1 767 l 1
 1 765 l 1
2 765 m 1
 2 767 l 1
 6 767 l 1
 6 765 l 1
 2 765 l 1
6 765 m 1
 7 765 l 1
 7 767 l 1
 6 767 l 1
 6 765 l 1
9 765 m 1
 10 765 l 1
 10 767 l 1
 9 767 l 1
 9 765 l 1
10 765 m 1
 10 767 l 1
 14 767 l 1
 14 765 l 1
 10 765 l 1
14 765 m 1
 15 765 l 1
 15 767 l 1
 14 767 l 1
 14 765 l 1
16 765 m 1
 17 765 l 1
 17 767 l 1
 16 767 l 1
 16 765 l 1
17 765 m 1
 17 767 l 1
 21 767 l 1
 21 765 l 1
 17 765 l 1
21 765 m 1
 22 765 l 1
 22 767 l 1
 21 767 l 1
 21 765 l 1
26 765 m 1
 27 765 l 1
 27 767 l 1
 26 767 l 1
 26 765 l 1
27 765 m 1
 27 767 l 1
 31 767 l 1
 31 765 l 1
 27 765 l 1
31 765 m 1
 33 765 l 1
 33 767 l 1
 31 767 l 1
 31 765 l 1
33 765 m 1
 33 767 l 1
 37 767 l 1
 37 765 l 1
 33 765 l 1
37 765 m 1
 38 765 l 1
 38 767 l 1
 37 767 l 1
 37 765 l 1
42 765 m 1
 43 765 l 1
 43 767 l 1
 42 767 l 1
 42 765 l 1
43 765 m 1
 43 767 l 1
 47 767 l 1
 47 765 l 1
 43 765 l 1
47 766 m 1
 49 766 l 1
 49 767 l 1
 47 767 l 1
 47 766 l 1
49 766 m 1
 49 767 l 1
 52 767 l 1
 52 766 l 1
 49 766 l 1
52 766 m 1
 53 766 l 1
 53 767 l 1
 52 767 l 1
 52 766 l 1
59 766 m 1
 60 766 l 1
 60 767 l 1
 59 767 l 1
 59 766 l 1
60 766 m 1
 60 767 l 1
 63 767 l 1
 63 766 l 1
 60 766 l 1
63 766 m 1
 65 766 l 1
 65 767 l 1
 63 767 l 1
 63 766 l 1
65 766 m 1
 65 767 l 1
 68 767 l 1
 68 766 l 1
 65 766 l 1
68 766 m 1
 69 766 l 1
 69 767 l 1
 68 767 l 1
 68 766 l 1
75 766 m 1
 76 766 l 1
 76 767 l 1
 75 767 l 1
 75 766 l 1
76 766 m 1
 76 767 l 1
 79 767 l 1
 79 766 l 1
 76 766 l 1
79 766 m 1
 80 766 l 1
 80 767 l 1
 79 767 l 1
 79 766 l 1
81 763 m 1
 82 763 l 1
 82 767 l 1
 81 767 l 1
 81 763 l 1
82 765 m 1
 82 767 l 1
 94 767 l 1
 94 765 l 1
 82 765 l 1
94 764 m 1
 95 764 l 1
 95 767 l 1
 94 767 l 1
 94 764 l 1
47 765 m 1
 48 765 l 1
 48 766 l 1
 47 766 l 1
 47 765 l 1
49 765 m 1
 50 765 l 1
 50 766 l 1
 49 766 l 1
 49 765 l 1
50 765 m 1
 50 766 l 1
 53 766 l 1
 53 765 l 1
 50 765 l 1
53 765 m 1
 54 765 l 1
 54 766 l 1
 53 766 l 1
 53 765 l 1
58 765 m 1
 59 765 l 1
 59 766 l 1
 58 766 l 1
 58 765 l 1
59 765 m 1
 59 766 l 1
 62 766 l 1
 62 765 l 1
 59 765 l 1
62 765 m 1
 63 765 l 1
 63 766 l 1
 62 766 l 1
 62 765 l 1
65 765 m 1
 66 765 l 1
 66 766 l 1
 65 766 l 1
 65 765 l 1
66 765 m 1
 66 766 l 1
 69 766 l 1
 69 765 l 1
 66 765 l 1
69 765 m 1
 70 765 l 1
 70 766 l 1
 69 766 l 1
 69 765 l 1
74 765 m 1
 75 765 l 1
 75 766 l 1
 74 766 l 1
 74 765 l 1
75 765 m 1
 75 766 l 1
 78 766 l 1
 78 765 l 1
 75 765 l 1
78 765 m 1
 79 765 l 1
 79 766 l 1
 78 766 l 1
 78 765 l 1
2 755 m 1
 3 755 l 1
 3 765 l 1
 2 765 l 1
 2 755 l 1
3 755 m 1
 3 765 l 1
 5 765 l 1
 5 755 l 1
 3 755 l 1
5 756 m 1
 6 756 l 1
 6 765 l 1
 5 765 l 1
 5 756 l 1
10 756 m 1
 11 756 l 1
 11 765 l 1
 10 765 l 1
 10 756 l 1
11 755 m 1
 11 765 l 1
 13 765 l 1
 13 755 l 1
 11 755 l 1
13 755 m 1
 14 755 l 1
 14 765 l 1
 13 765 l 1
 13 755 l 1
17 763 m 1
 18 763 l 1
 18 765 l 1
 17 765 l 1
 17 763 l 1
18 763 m 1
 18 765 l 1
 20 765 l 1
 20 763 l 1
 18 763 l 1
20 764 m 1
 21 764 l 1
 21 765 l 1
 20 765 l 1
 20 764 l 1
27 764 m 1
 28 764 l 1
 28 765 l 1
 27 765 l 1
 27 764 l 1
28 763 m 1
 28 765 l 1
 30 765 l 1
 30 763 l 1
 28 763 l 1
30 763 m 1
 31 763 l 1
 31 765 l 1
 30 765 l 1
 30 763 l 1
33 754 m 1
 34 754 l 1
 34 765 l 1
 33 765 l 1
 33 754 l 1
34 754 m 1
 34 765 l 1
 36 765 l 1
 36 754 l 1
 34 754 l 1
36 756 m 1
 37 756 l 1
 37 765 l 1
 36 765 l 1
 36 756 l 1
43 756 m 1
 44 756 l 1
 44 765 l 1
 43 765 l 1
 43 756 l 1
44 754 m 1
 44 765 l 1
 46 765 l 1
 46 754 l 1
 44 754 l 1
46 754 m 1
 47 754 l 1
 47 765 l 1
 46 765 l 1
 46 754 l 1
50 764 m 1
 51 764 l 1
 51 765 l 1
 50 765 l 1
 50 764 l 1
51 764 m 1
 51 765 l 1
 54 765 l 1
 54 764 l 1
 51 764 l 1
54 764 m 1
 55 764 l 1
 55 765 l 1
 54 765 l 1
 54 764 l 1
57 764 m 1
 58 764 l 1
 58 765 l 1
 57 765 l 1
 57 764 l 1
58 764 m 1
 58 765 l 1
 61 765 l 1
 61 764 l 1
 58 764 l 1
61 764 m 1
 62 764 l 1
 62 765 l 1
 61 765 l 1
 61 764 l 1
66 764 m 1
 67 764 l 1
 67 765 l 1
 66 765 l 1
 66 764 l 1
67 764 m 1
 67 765 l 1
 70 765 l 1
 70 764 l 1
 67 764 l 1
70 764 m 1
 71 764 l 1
 71 765 l 1
 70 765 l 1
 70 764 l 1
73 764 m 1
 74 764 l 1
 74 765 l 1
 73 765 l 1
 73 764 l 1
74 764 m 1
 74 765 l 1
 77 765 l 1
 77 764 l 1
 74 764 l 1
77 764 m 1
 78 764 l 1
 78 765 l 1
 77 765 l 1
 77 764 l 1
82 764 m 1
 82 765 l 1
 84 765 l 1
 84 764 l 1
 82 764 l 1
84 764 m 1
 91 764 l 1
 91 765 l 1
 84 765 l 1
 84 764 l 1
91 764 m 1
 91 765 l 1
 94 765 l 1
 94 764 l 1
 91 764 l 1
20 758 m 1
 20 764 l 1
 21 764 l 1
 21 758 l 1
 20 758 l 1
21 761 m 1
 22 761 l 1
 22 764 l 1
 21 764 l 1
 21 761 l 1
26 761 m 1
 27 761 l 1
 27 764 l 1
 26 764 l 1
 26 761 l 1
27 758 m 1
 27 764 l 1
 28 764 l 1
 28 758 l 1
 27 758 l 1
51 763 m 1
 52 763 l 1
 52 764 l 1
 51 764 l 1
 51 763 l 1
52 763 m 1
 52 764 l 1
 55 764 l 1
 55 763 l 1
 52 763 l 1
55 763 m 1
 57 763 l 1
 57 764 l 1
 55 764 l 1
 55 763 l 1
57 763 m 1
 57 764 l 1
 60 764 l 1
 60 763 l 1
 57 763 l 1
60 763 m 1
 61 763 l 1
 61 764 l 1
 60 764 l 1
 60 763 l 1
67 763 m 1
 68 763 l 1
 68 764 l 1
 67 764 l 1
 67 763 l 1
68 763 m 1
 68 764 l 1
 71 764 l 1
 71 763 l 1
 68 763 l 1
71 763 m 1
 73 763 l 1
 73 764 l 1
 71 764 l 1
 71 763 l 1
73 763 m 1
 73 764 l 1
 76 764 l 1
 76 763 l 1
 73 763 l 1
76 763 m 1
 77 763 l 1
 77 764 l 1
 76 764 l 1
 76 763 l 1
82 763 m 1
 82 764 l 1
 83 764 l 1
 83 763 l 1
 82 763 l 1
83 763 m 1
 84 763 l 1
 84 764 l 1
 83 764 l 1
 83 763 l 1
89 763 m 1
 90 763 l 1
 90 764 l 1
 89 764 l 1
 89 763 l 1
90 763 m 1
 90 764 l 1
 93 764 l 1
 93 763 l 1
 90 763 l 1
93 763 m 1
 94 763 l 1
 94 764 l 1
 93 764 l 1
 93 763 l 1
18 760 m 1
 19 760 l 1
 19 763 l 1
 18 763 l 1
 18 760 l 1
19 760 m 1
 19 763 l 1
 20 763 l 1
 20 760 l 1
 19 760 l 1
28 760 m 1
 28 763 l 1
 29 763 l 1
 29 760 l 1
 28 760 l 1
29 760 m 1
 30 760 l 1
 30 763 l 1
 29 763 l 1
 29 760 l 1
52 762 m 1
 53 762 l 1
 53 763 l 1
 52 763 l 1
 52 762 l 1
53 762 m 1
 53 763 l 1
 59 763 l 1
 59 762 l 1
 53 762 l 1
59 762 m 1
 60 762 l 1
 60 763 l 1
 59 763 l 1
 59 762 l 1
68 762 m 1
 69 762 l 1
 69 763 l 1
 68 763 l 1
 68 762 l 1
69 762 m 1
 69 763 l 1
 75 763 l 1
 75 762 l 1
 69 762 l 1
75 762 m 1
 76 762 l 1
 76 763 l 1
 75 763 l 1
 75 762 l 1
82 762 m 1
 83 762 l 1
 83 763 l 1
 82 763 l 1
 82 762 l 1
88 762 m 1
 89 762 l 1
 89 763 l 1
 88 763 l 1
 88 762 l 1
89 762 m 1
 89 763 l 1
 92 763 l 1
 92 762 l 1
 89 762 l 1
92 762 m 1
 93 762 l 1
 93 763 l 1
 92 763 l 1
 92 762 l 1
53 758 m 1
 54 758 l 1
 54 762 l 1
 53 762 l 1
 53 758 l 1
54 757 m 1
 54 762 l 1
 58 762 l 1
 58 757 l 1
 54 757 l 1
58 758 m 1
 59 758 l 1
 59 762 l 1
 58 762 l 1
 58 758 l 1
69 761 m 1
 70 761 l 1
 70 762 l 1
 69 762 l 1
 69 761 l 1
70 761 m 1
 70 762 l 1
 74 762 l 1
 74 761 l 1
 70 761 l 1
74 761 m 1
 75 761 l 1
 75 762 l 1
 74 762 l 1
 74 761 l 1
84 761 m 1
 88 761 l 1
 88 762 l 1
 84 762 l 1
 84 761 l 1
88 759 m 1
 88 762 l 1
 91 762 l 1
 91 759 l 1
 88 759 l 1
91 761 m 1
 92 761 l 1
 92 762 l 1
 91 762 l 1
 91 761 l 1
21 755 m 1
 21 761 l 1
 22 761 l 1
 22 755 l 1
 21 755 l 1
22 759 m 1
 23 759 l 1
 23 761 l 1
 22 761 l 1
 22 759 l 1
25 759 m 1
 26 759 l 1
 26 761 l 1
 25 761 l 1
 25 759 l 1
26 755 m 1
 26 761 l 1
 27 761 l 1
 27 755 l 1
 26 755 l 1
39 760 m 1
 41 760 l 1
 41 761 l 1
 39 761 l 1
 39 760 l 1
70 755 m 1
 71 755 l 1
 71 761 l 1
 70 761 l 1
 70 755 l 1
71 753 m 1
 71 761 l 1
 73 761 l 1
 73 753 l 1
 71 753 l 1
73 755 m 1
 74 755 l 1
 74 761 l 1
 73 761 l 1
 73 755 l 1
83 759 m 1
 84 759 l 1
 84 761 l 1
 83 761 l 1
 83 759 l 1
84 759 m 1
 84 761 l 1
 88 761 l 1
 88 759 l 1
 84 759 l 1
91 759 m 1
 91 761 l 1
 92 761 l 1
 92 759 l 1
 91 759 l 1
92 759 m 1
 93 759 l 1
 93 761 l 1
 92 761 l 1
 92 759 l 1
19 758 m 1
 20 758 l 1
 20 760 l 1
 19 760 l 1
 19 758 l 1
28 758 m 1
 29 758 l 1
 29 760 l 1
 28 760 l 1
 28 758 l 1
38 759 m 1
 39 759 l 1
 39 760 l 1
 38 760 l 1
 38 759 l 1
39 754 m 1
 39 760 l 1
 41 760 l 1
 41 754 l 1
 39 754 l 1
41 759 m 1
 42 759 l 1
 42 760 l 1
 41 760 l 1
 41 759 l 1
22 753 m 1
 22 759 l 1
 23 759 l 1
 23 753 l 1
 22 753 l 1
23 756 m 1
 25 756 l 1
 25 759 l 1
 23 759 l 1
 23 756 l 1
25 753 m 1
 25 759 l 1
 26 759 l 1
 26 753 l 1
 25 753 l 1
37 758 m 1
 38 758 l 1
 38 759 l 1
 37 759 l 1
 37 758 l 1
38 758 m 1
 38 759 l 1
 39 759 l 1
 39 758 l 1
 38 758 l 1
41 758 m 1
 41 759 l 1
 42 759 l 1
 42 758 l 1
 41 758 l 1
42 758 m 1
 43 758 l 1
 43 759 l 1
 42 759 l 1
 42 758 l 1
84 758 m 1
 85 758 l 1
 85 759 l 1
 84 759 l 1
 84 758 l 1
85 758 m 1
 85 759 l 1
 88 759 l 1
 88 758 l 1
 85 758 l 1
88 758 m 1
 92 758 l 1
 92 759 l 1
 88 759 l 1
 88 758 l 1
20 755 m 1
 21 755 l 1
 21 758 l 1
 20 758 l 1
 20 755 l 1
27 755 m 1
 28 755 l 1
 28 758 l 1
 27 758 l 1
 27 755 l 1
38 756 m 1
 39 756 l 1
 39 758 l 1
 38 758 l 1
 38 756 l 1
41 756 m 1
 42 756 l 1
 42 758 l 1
 41 758 l 1
 41 756 l 1
52 757 m 1
 53 757 l 1
 53 758 l 1
 52 758 l 1
 52 757 l 1
53 755 m 1
 53 758 l 1
 54 758 l 1
 54 755 l 1
 53 755 l 1
58 755 m 1
 58 758 l 1
 59 758 l 1
 59 755 l 1
 58 755 l 1
59 757 m 1
 60 757 l 1
 60 758 l 1
 59 758 l 1
 59 757 l 1
83 757 m 1
 84 757 l 1
 84 758 l 1
 83 758 l 1
 83 757 l 1
84 757 m 1
 84 758 l 1
 87 758 l 1
 87 757 l 1
 84 757 l 1
87 757 m 1
 88 757 l 1
 88 758 l 1
 87 758 l 1
 87 757 l 1
93 757 m 1
 94 757 l 1
 94 758 l 1
 93 758 l 1
 93 757 l 1
51 756 m 1
 52 756 l 1
 52 757 l 1
 51 757 l 1
 51 756 l 1
52 754 m 1
 52 757 l 1
 53 757 l 1
 53 754 l 1
 52 754 l 1
54 756 m 1
 54 757 l 1
 55 757 l 1
 55 756 l 1
 54 756 l 1
55 756 m 1
 57 756 l 1
 57 757 l 1
 55 757 l 1
 55 756 l 1
57 756 m 1
 57 757 l 1
 58 757 l 1
 58 756 l 1
 57 756 l 1
59 754 m 1
 59 757 l 1
 60 757 l 1
 60 754 l 1
 59 754 l 1
60 756 m 1
 61 756 l 1
 61 757 l 1
 60 757 l 1
 60 756 l 1
82 756 m 1
 83 756 l 1
 83 757 l 1
 82 757 l 1
 82 756 l 1
83 756 m 1
 83 757 l 1
 86 757 l 1
 86 756 l 1
 83 756 l 1
86 755 m 1
 87 755 l 1
 87 757 l 1
 86 757 l 1
 86 755 l 1
92 756 m 1
 93 756 l 1
 93 757 l 1
 92 757 l 1
 92 756 l 1
93 753 m 1
 93 757 l 1
 94 757 l 1
 94 753 l 1
 93 753 l 1
94 753 m 1
 95 753 l 1
 95 757 l 1
 94 757 l 1
 94 753 l 1
5 753 m 1
 5 756 l 1
 6 756 l 1
 6 753 l 1
 5 753 l 1
6 755 m 1
 10 755 l 1
 10 756 l 1
 6 756 l 1
 6 755 l 1
10 753 m 1
 10 756 l 1
 11 756 l 1
 11 753 l 1
 10 753 l 1
23 753 m 1
 23 756 l 1
 25 756 l 1
 25 753 l 1
 23 753 l 1
36 753 m 1
 36 756 l 1
 37 756 l 1
 37 753 l 1
 36 753 l 1
37 755 m 1
 38 755 l 1
 38 756 l 1
 37 756 l 1
 37 755 l 1
38 753 m 1
 38 756 l 1
 39 756 l 1
 39 753 l 1
 38 753 l 1
41 753 m 1
 41 756 l 1
 42 756 l 1
 42 753 l 1
 41 753 l 1
42 755 m 1
 43 755 l 1
 43 756 l 1
 42 756 l 1
 42 755 l 1
43 753 m 1
 43 756 l 1
 44 756 l 1
 44 753 l 1
 43 753 l 1
50 755 m 1
 51 755 l 1
 51 756 l 1
 50 756 l 1
 50 755 l 1
51 753 m 1
 51 756 l 1
 52 756 l 1
 52 753 l 1
 51 753 l 1
54 755 m 1
 55 755 l 1
 55 756 l 1
 54 756 l 1
 54 755 l 1
57 755 m 1
 58 755 l 1
 58 756 l 1
 57 756 l 1
 57 755 l 1
60 753 m 1
 60 756 l 1
 61 756 l 1
 61 753 l 1
 60 753 l 1
61 755 m 1
 62 755 l 1
 62 756 l 1
 61 756 l 1
 61 755 l 1
81 753 m 1
 82 753 l 1
 82 756 l 1
 81 756 l 1
 81 753 l 1
82 753 m 1
 82 756 l 1
 85 756 l 1
 85 753 l 1
 82 753 l 1
85 755 m 1
 86 755 l 1
 86 756 l 1
 85 756 l 1
 85 755 l 1
87 755 m 1
 92 755 l 1
 92 756 l 1
 87 756 l 1
 87 755 l 1
92 753 m 1
 92 756 l 1
 93 756 l 1
 93 753 l 1
 92 753 l 1
3 754 m 1
 4 754 l 1
 4 755 l 1
 3 755 l 1
 3 754 l 1
4 754 m 1
 4 755 l 1
 5 755 l 1
 5 754 l 1
 4 754 l 1
6 753 m 1
 6 755 l 1
 10 755 l 1
 10 753 l 1
 6 753 l 1
11 754 m 1
 11 755 l 1
 12 755 l 1
 12 754 l 1
 11 754 l 1
12 754 m 1
 13 754 l 1
 13 755 l 1
 12 755 l 1
 12 754 l 1
21 753 m 1
 22 753 l 1
 22 755 l 1
 21 755 l 1
 21 753 l 1
26 753 m 1
 27 753 l 1
 27 755 l 1
 26 755 l 1
 26 753 l 1
37 753 m 1
 37 755 l 1
 38 755 l 1
 38 753 l 1
 37 753 l 1
42 753 m 1
 42 755 l 1
 43 755 l 1
 43 753 l 1
 42 753 l 1
49 754 m 1
 50 754 l 1
 50 755 l 1
 49 755 l 1
 49 754 l 1
50 753 m 1
 50 755 l 1
 51 755 l 1
 51 753 l 1
 50 753 l 1
53 754 m 1
 54 754 l 1
 54 755 l 1
 53 755 l 1
 53 754 l 1
58 754 m 1
 59 754 l 1
 59 755 l 1
 58 755 l 1
 58 754 l 1
61 753 m 1
 61 755 l 1
 62 755 l 1
 62 753 l 1
 61 753 l 1
62 754 m 1
 63 754 l 1
 63 755 l 1
 62 755 l 1
 62 754 l 1
69 754 m 1
 70 754 l 1
 70 755 l 1
 69 755 l 1
 69 754 l 1
70 753 m 1
 70 755 l 1
 71 755 l 1
 71 753 l 1
 70 753 l 1
73 753 m 1
 73 755 l 1
 74 755 l 1
 74 753 l 1
 73 753 l 1
74 754 m 1
 75 754 l 1
 75 755 l 1
 74 755 l 1
 74 754 l 1
85 753 m 1
 85 755 l 1
 92 755 l 1
 92 753 l 1
 85 753 l 1
4 753 m 1
 5 753 l 1
 5 754 l 1
 4 754 l 1
 4 753 l 1
11 753 m 1
 12 753 l 1
 12 754 l 1
 11 754 l 1
 11 753 l 1
34 753 m 1
 35 753 l 1
 35 754 l 1
 34 754 l 1
 34 753 l 1
35 753 m 1
 35 754 l 1
 36 754 l 1
 36 753 l 1
 35 753 l 1
39 753 m 1
 41 753 l 1
 41 754 l 1
 39 754 l 1
 39 753 l 1
44 753 m 1
 44 754 l 1
 45 754 l 1
 45 753 l 1
 44 753 l 1
45 753 m 1
 46 753 l 1
 46 754 l 1
 45 754 l 1
 45 753 l 1
48 753 m 1
 49 753 l 1
 49 754 l 1
 48 754 l 1
 48 753 l 1
49 753 m 1
 49 754 l 1
 50 754 l 1
 50 753 l 1
 49 753 l 1
52 753 m 1
 53 753 l 1
 53 754 l 1
 52 754 l 1
 52 753 l 1
59 753 m 1
 60 753 l 1
 60 754 l 1
 59 754 l 1
 59 753 l 1
62 753 m 1
 62 754 l 1
 63 754 l 1
 63 753 l 1
 62 753 l 1
63 753 m 1
 64 753 l 1
 64 754 l 1
 63 754 l 1
 63 753 l 1
68 753 m 1
 69 753 l 1
 69 754 l 1
 68 754 l 1
 68 753 l 1
69 753 m 1
 69 754 l 1
 70 754 l 1
 70 753 l 1
 69 753 l 1
74 753 m 1
 74 754 l 1
 75 754 l 1
 75 753 l 1
 74 753 l 1
75 753 m 1
 76 753 l 1
 76 754 l 1
 75 754 l 1
 75 753 l 1
5 752 m 1
 11 752 l 1
 11 753 l 1
 5 753 l 1
 5 752 l 1
22 752 m 1
 26 752 l 1
 26 753 l 1
 22 753 l 1
 22 752 l 1
35 752 m 1
 39 752 l 1
 39 753 l 1
 35 753 l 1
 35 752 l 1
41 752 m 1
 45 752 l 1
 45 753 l 1
 41 753 l 1
 41 752 l 1
49 752 m 1
 52 752 l 1
 52 753 l 1
 49 753 l 1
 49 752 l 1
60 752 m 1
 63 752 l 1
 63 753 l 1
 60 753 l 1
 60 752 l 1
69 752 m 1
 75 752 l 1
 75 753 l 1
 69 753 l 1
 69 752 l 1
82 752 m 1
 94 752 l 1
 94 753 l 1
 82 753 l 1
 82 752 l 1
EndSplineSet
EndChar

StartChar: B
Encoding: 66 66 1
Width: 1000
Flags: H
LayerCount: 2
Fore
SplineSet
6 799 m 1
 10 799 l 1
 10 800 l 1
 6 800 l 1
 6 799 l 1
157 799 m 1
 158 799 l 1
 158 800 l 1
 157 800 l 1
 157 799 l 1
5 797 m 1
 6 797 l 1
 6 799 l 1
 5 799 l 1
 5 797 l 1
6 797 m 1
 6 799 l 1
 10 799 l 1
 10 797 l 1
 6 797 l 1
10 797 m 1
 11 797 l 1
 11 799 l 1
 10 799 l 1
 10 797 l 1
158 798 m 1
 159 798 l 1
 159 799 l 1
 158 799 l 1
 158 798 l 1
4 794 m 1
 5 794 l 1
 5 797 l 1
 4 797 l 1
 4 794 l 1
5 794 m 1
 5 797 l 1
 7 797 l 1
 7 794 l 1
 5 794 l 1
7 794 m 1
 9 794 l 1
 9 797 l 1
 7 797 l 1
 7 794 l 1
9 794 m 1
 9 797 l 1
 11 797 l 1
 11 794 l 1
 9 794 l 1
11 794 m 1
 12 794 l 1
 12 797 l 1
 11 797 l 1
 11 794 l 1
3 791 m 1
 4 791 l 1
 4 794 l 1
 3 794 l 1
 3 791 l 1
4 789 m 1
 4 794 l 1
 6 794 l 1
 6 789 l 1
 4 789 l 1
6 791 m 1
 7 791 l 1
 7 794 l 1
 6 794 l 1
 6 791 l 1
9 791 m 1
 10 791 l 1
 10 794 l 1
 9 794 l 1
 9 791 l 1
10 789 m 1
 10 794 l 1
 12 794 l 1
 12 789 l 1
 10 789 l 1
12 791 m 1
 13 791 l 1
 13 794 l 1
 12 794 l 1
 12 791 l 1
7 791 m 1
 9 791 l 1
 9 792 l 1
 7 792 l 1
 7 791 l 1
2 787 m 1
 3 787 l 1
 3 791 l 1
 2 791 l 1
 2 787 l 1
3 785 m 1
 3 791 l 1
 4 791 l 1
 4 785 l 1
 3 785 l 1
6 789 m 1
 6 791 l 1
 10 791 l 1
 10 789 l 1
 6 789 l 1
12 785 m 1
 12 791 l 1
 13 791 l 1
 13 785 l 1
 12 785 l 1
13 787 m 1
 14 787 l 1
 14 791 l 1
 13 791 l 1
 13 787 l 1
4 785 m 1
 4 789 l 1
 5 789 l 1
 5 785 l 1
 4 785 l 1
5 788 m 1
 11 788 l 1
 11 789 l 1
 5 789 l 1
 5 788 l 1
11 785 m 1
 11 789 l 1
 12 789 l 1
 12 785 l 1
 11 785 l 1
5 785 m 1
 6 785 l 1
 6 788 l 1
 5 788 l 1
 5 785 l 1
10 785 m 1
 11 785 l 1
 11 788 l 1
 10 788 l 1
 10 785 l 1
1 785 m 1
 2 785 l 1
 2 787 l 1
 1 787 l 1
 1 785 l 1
2 785 m 1
 2 787 l 1
 3 787 l 1
 3 785 l 1
 2 785 l 1
13 785 m 1
 13 787 l 1
 14 787 l 1
 14 785 l 1
 13 785 l 1
14 785 m 1
 15 785 l 1
 15 787 l 1
 14 787 l 1
 14 785 l 1
2 784 m 1
 5 784 l 1
 5 785 l 1
 2 785 l 1
 2 784 l 1
11 784 m 1
 14 784 l 1
 14 785 l 1
 11 785 l 1
 11 784 l 1
EndSplineSet
EndChar

StartChar: C
Encoding: 67 67 2
Width: 1000
Flags: H
LayerCount: 2
Fore
SplineSet
20 799 m 1
 29 799 l 1
 29 800 l 1
 20 800 l 1
 20 799 l 1
19 798 m 1
 20 798 l 1
 20 799 l 1
 19 799 l 1
 19 798 l 1
20 797 m 1
 20 799 l 1
 29 799 l 1
 29 797 l 1
 20 797 l 1
29 798 m 1
 30 798 l 1
 30 799 l 1
 29 799 l 1
 29 798 l 1
18 786 m 1
 19 786 l 1
 19 798 l 1
 18 798 l 1
 18 786 l 1
19 786 m 1
 19 798 l 1
 20 798 l 1
 20 786 l 1
 19 786 l 1
29 792 m 1
 29 798 l 1
 30 798 l 1
 30 792 l 1
 29 792 l 1
30 792 m 1
 31 792 l 1
 31 798 l 1
 30 798 l 1
 30 792 l 1
20 785 m 1
 20 797 l 1
 22 797 l 1
 22 785 l 1
 20 785 l 1
22 796 m 1
 27 796 l 1
 27 797 l 1
 22 797 l 1
 22 796 l 1
27 796 m 1
 27 797 l 1
 29 797 l 1
 29 796 l 1
 27 796 l 1
22 792 m 1
 23 792 l 1
 23 796 l 1
 22 796 l 1
 22 792 l 1
27 793 m 1
 28 793 l 1
 28 796 l 1
 27 796 l 1
 27 793 l 1
28 785 m 1
 28 796 l 1
 29 796 l 1
 29 785 l 1
 28 785 l 1
23 792 m 1
 27 792 l 1
 27 793 l 1
 23 793 l 1
 23 792 l 1
27 789 m 1
 27 793 l 1
 28 793 l 1
 28 789 l 1
 27 789 l 1
22 790 m 1
 22 792 l 1
 27 792 l 1
 27 790 l 1
 22 790 l 1
29 790 m 1
 30 790 l 1
 30 792 l 1
 29 792 l 1
 29 790 l 1
22 789 m 1
 27 789 l 1
 27 790 l 1
 22 790 l 1
 22 789 l 1
29 786 m 1
 29 790 l 1
 30 790 l 1
 30 786 l 1
 29 786 l 1
30 786 m 1
 31 786 l 1
 31 790 l 1
 30 790 l 1
 30 786 l 1
22 787 m 1
 23 787 l 1
 23 789 l 1
 22 789 l 1
 22 787 l 1
27 788 m 1
 28 788 l 1
 28 789 l 1
 27 789 l 1
 27 788 l 1
23 787 m 1
 27 787 l 1
 27 788 l 1
 23 788 l 1
 23 787 l 1
27 785 m 1
 27 788 l 1
 28 788 l 1
 28 785 l 1
 27 785 l 1
22 785 m 1
 22 787 l 1
 27 787 l 1
 27 785 l 1
 22 785 l 1
19 785 m 1
 20 785 l 1
 20 786 l 1
 19 786 l 1
 19 785 l 1
29 785 m 1
 30 785 l 1
 30 786 l 1
 29 786 l 1
 29 785 l 1
20 784 m 1
 29 784 l 1
 29 785 l 1
 20 785 l 1
 20 784 l 1
EndSplineSet
EndChar

StartChar: D
Encoding: 68 68 3
Width: 1000
Flags: H
LayerCount: 2
Fore
SplineSet
37 799 m 1
 45 799 l 1
 45 800 l 1
 37 800 l 1
 37 799 l 1
36 798 m 1
 37 798 l 1
 37 799 l 1
 36 799 l 1
 36 798 l 1
37 797 m 1
 37 799 l 1
 45 799 l 1
 45 797 l 1
 37 797 l 1
45 798 m 1
 46 798 l 1
 46 799 l 1
 45 799 l 1
 45 798 l 1
35 797 m 1
 36 797 l 1
 36 798 l 1
 35 798 l 1
 35 797 l 1
36 786 m 1
 36 798 l 1
 37 798 l 1
 37 786 l 1
 36 786 l 1
45 795 m 1
 45 798 l 1
 46 798 l 1
 46 795 l 1
 45 795 l 1
46 795 m 1
 47 795 l 1
 47 798 l 1
 46 798 l 1
 46 795 l 1
34 795 m 1
 35 795 l 1
 35 797 l 1
 34 797 l 1
 34 795 l 1
35 787 m 1
 35 797 l 1
 36 797 l 1
 36 787 l 1
 35 787 l 1
37 796 m 1
 37 797 l 1
 39 797 l 1
 39 796 l 1
 37 796 l 1
39 796 m 1
 44 796 l 1
 44 797 l 1
 39 797 l 1
 39 796 l 1
44 796 m 1
 44 797 l 1
 45 797 l 1
 45 796 l 1
 44 796 l 1
37 795 m 1
 37 796 l 1
 38 796 l 1
 38 795 l 1
 37 795 l 1
38 795 m 1
 39 795 l 1
 39 796 l 1
 38 796 l 1
 38 795 l 1
44 795 m 1
 45 795 l 1
 45 796 l 1
 44 796 l 1
 44 795 l 1
33 789 m 1
 34 789 l 1
 34 795 l 1
 33 795 l 1
 33 789 l 1
34 789 m 1
 34 795 l 1
 35 795 l 1
 35 789 l 1
 34 789 l 1
37 789 m 1
 38 789 l 1
 38 795 l 1
 37 795 l 1
 37 789 l 1
45 794 m 1
 46 794 l 1
 46 795 l 1
 45 795 l 1
 45 794 l 1
45 789 m 1
 46 789 l 1
 46 790 l 1
 45 790 l 1
 45 789 l 1
34 787 m 1
 35 787 l 1
 35 789 l 1
 34 789 l 1
 34 787 l 1
37 785 m 1
 37 789 l 1
 38 789 l 1
 38 785 l 1
 37 785 l 1
38 788 m 1
 39 788 l 1
 39 789 l 1
 38 789 l 1
 38 788 l 1
44 788 m 1
 45 788 l 1
 45 789 l 1
 44 789 l 1
 44 788 l 1
45 786 m 1
 45 789 l 1
 46 789 l 1
 46 786 l 1
 45 786 l 1
46 786 m 1
 47 786 l 1
 47 789 l 1
 46 789 l 1
 46 786 l 1
38 785 m 1
 38 788 l 1
 39 788 l 1
 39 785 l 1
 38 785 l 1
39 787 m 1
 44 787 l 1
 44 788 l 1
 39 788 l 1
 39 787 l 1
44 785 m 1
 44 788 l 1
 45 788 l 1
 45 785 l 1
 44 785 l 1
35 786 m 1
 36 786 l 1
 36 787 l 1
 35 787 l 1
 35 786 l 1
39 785 m 1
 39 787 l 1
 44 787 l 1
 44 785 l 1
 39 785 l 1
36 785 m 1
 37 785 l 1
 37 786 l 1
 36 786 l 1
 36 785 l 1
45 785 m 1
 46 785 l 1
 46 786 l 1
 45 786 l 1
 45 785 l 1
37 784 m 1
 45 784 l 1
 45 785 l 1
 37 785 l 1
 37 784 l 1
EndSplineSet
EndChar

StartChar: E
Encoding: 69 69 4
Width: 1000
Flags: H
LayerCount: 2
Fore
SplineSet
50 799 m 1
 60 799 l 1
 60 800 l 1
 50 800 l 1
 50 799 l 1
49 797 m 1
 50 797 l 1
 50 799 l 1
 49 799 l 1
 49 797 l 1
50 797 m 1
 50 799 l 1
 60 799 l 1
 60 797 l 1
 50 797 l 1
60 798 m 1
 61 798 l 1
 61 799 l 1
 60 799 l 1
 60 798 l 1
60 786 m 1
 60 798 l 1
 61 798 l 1
 61 786 l 1
 60 786 l 1
61 797 m 1
 62 797 l 1
 62 798 l 1
 61 798 l 1
 61 797 l 1
50 787 m 1
 51 787 l 1
 51 797 l 1
 50 797 l 1
 50 787 l 1
51 785 m 1
 51 797 l 1
 53 797 l 1
 53 785 l 1
 51 785 l 1
53 796 m 1
 59 796 l 1
 59 797 l 1
 53 797 l 1
 53 796 l 1
59 796 m 1
 59 797 l 1
 60 797 l 1
 60 796 l 1
 59 796 l 1
61 787 m 1
 61 797 l 1
 62 797 l 1
 62 787 l 1
 61 787 l 1
62 787 m 1
 63 787 l 1
 63 797 l 1
 62 797 l 1
 62 787 l 1
53 787 m 1
 54 787 l 1
 54 796 l 1
 53 796 l 1
 53 787 l 1
59 788 m 1
 60 788 l 1
 60 796 l 1
 59 796 l 1
 59 788 l 1
54 787 m 1
 59 787 l 1
 59 788 l 1
 54 788 l 1
 54 787 l 1
59 785 m 1
 59 788 l 1
 60 788 l 1
 60 785 l 1
 59 785 l 1
49 785 m 1
 50 785 l 1
 50 787 l 1
 49 787 l 1
 49 785 l 1
50 785 m 1
 50 787 l 1
 51 787 l 1
 51 785 l 1
 50 785 l 1
53 785 m 1
 53 787 l 1
 59 787 l 1
 59 785 l 1
 53 785 l 1
61 786 m 1
 62 786 l 1
 62 787 l 1
 61 787 l 1
 61 786 l 1
60 785 m 1
 61 785 l 1
 61 786 l 1
 60 786 l 1
 60 785 l 1
50 784 m 1
 60 784 l 1
 60 785 l 1
 50 785 l 1
 50 784 l 1
EndSplineSet
EndChar

StartChar: F
Encoding: 70 70 5
Width: 1000
Flags: H
LayerCount: 2
Fore
SplineSet
68 799 m 1
 77 799 l 1
 77 800 l 1
 68 800 l 1
 68 799 l 1
67 798 m 1
 68 798 l 1
 68 799 l 1
 67 799 l 1
 67 798 l 1
68 797 m 1
 68 799 l 1
 77 799 l 1
 77 797 l 1
 68 797 l 1
77 798 m 1
 78 798 l 1
 78 799 l 1
 77 799 l 1
 77 798 l 1
66 786 m 1
 67 786 l 1
 67 798 l 1
 66 798 l 1
 66 786 l 1
67 786 m 1
 67 798 l 1
 68 798 l 1
 68 786 l 1
 67 786 l 1
77 795 m 1
 77 798 l 1
 78 798 l 1
 78 795 l 1
 77 795 l 1
78 795 m 1
 79 795 l 1
 79 798 l 1
 78 798 l 1
 78 795 l 1
68 796 m 1
 68 797 l 1
 70 797 l 1
 70 796 l 1
 68 796 l 1
70 796 m 1
 76 796 l 1
 76 797 l 1
 70 797 l 1
 70 796 l 1
76 796 m 1
 76 797 l 1
 77 797 l 1
 77 796 l 1
 76 796 l 1
68 785 m 1
 68 796 l 1
 69 796 l 1
 69 785 l 1
 68 785 l 1
69 794 m 1
 70 794 l 1
 70 796 l 1
 69 796 l 1
 69 794 l 1
76 795 m 1
 77 795 l 1
 77 796 l 1
 76 796 l 1
 76 795 l 1
73 794 m 1
 74 794 l 1
 74 795 l 1
 73 795 l 1
 73 794 l 1
77 794 m 1
 78 794 l 1
 78 795 l 1
 77 795 l 1
 77 794 l 1
69 790 m 1
 69 794 l 1
 70 794 l 1
 70 790 l 1
 69 790 l 1
70 793 m 1
 73 793 l 1
 73 794 l 1
 70 794 l 1
 70 793 l 1
73 790 m 1
 73 794 l 1
 74 794 l 1
 74 790 l 1
 73 790 l 1
74 793 m 1
 75 793 l 1
 75 794 l 1
 74 794 l 1
 74 793 l 1
70 791 m 1
 70 793 l 1
 73 793 l 1
 73 791 l 1
 70 791 l 1
74 791 m 1
 74 793 l 1
 75 793 l 1
 75 791 l 1
 74 791 l 1
75 791 m 1
 76 791 l 1
 76 793 l 1
 75 793 l 1
 75 791 l 1
70 790 m 1
 73 790 l 1
 73 791 l 1
 70 791 l 1
 70 790 l 1
74 790 m 1
 75 790 l 1
 75 791 l 1
 74 791 l 1
 74 790 l 1
69 788 m 1
 70 788 l 1
 70 790 l 1
 69 790 l 1
 69 788 l 1
73 789 m 1
 74 789 l 1
 74 790 l 1
 73 790 l 1
 73 789 l 1
77 789 m 1
 78 789 l 1
 78 790 l 1
 77 790 l 1
 77 789 l 1
76 788 m 1
 77 788 l 1
 77 789 l 1
 76 789 l 1
 76 788 l 1
77 786 m 1
 77 789 l 1
 78 789 l 1
 78 786 l 1
 77 786 l 1
78 786 m 1
 79 786 l 1
 79 789 l 1
 78 789 l 1
 78 786 l 1
69 785 m 1
 69 788 l 1
 70 788 l 1
 70 785 l 1
 69 785 l 1
70 787 m 1
 76 787 l 1
 76 788 l 1
 70 788 l 1
 70 787 l 1
76 785 m 1
 76 788 l 1
 77 788 l 1
 77 785 l 1
 76 785 l 1
70 785 m 1
 70 787 l 1
 76 787 l 1
 76 785 l 1
 70 785 l 1
67 785 m 1
 68 785 l 1
 68 786 l 1
 67 786 l 1
 67 785 l 1
77 785 m 1
 78 785 l 1
 78 786 l 1
 77 786 l 1
 77 785 l 1
68 784 m 1
 77 784 l 1
 77 785 l 1
 68 785 l 1
 68 784 l 1
EndSplineSet
EndChar

StartChar: G
Encoding: 71 71 6
Width: 1000
Flags: H
LayerCount: 2
Fore
SplineSet
84 799 m 1
 92 799 l 1
 92 800 l 1
 84 800 l 1
 84 799 l 1
83 798 m 1
 84 798 l 1
 84 799 l 1
 83 799 l 1
 83 798 l 1
84 797 m 1
 84 799 l 1
 92 799 l 1
 92 797 l 1
 84 797 l 1
92 798 m 1
 93 798 l 1
 93 799 l 1
 92 799 l 1
 92 798 l 1
82 785 m 1
 83 785 l 1
 83 798 l 1
 82 798 l 1
 82 785 l 1
83 785 m 1
 83 798 l 1
 84 798 l 1
 84 785 l 1
 83 785 l 1
92 796 m 1
 92 798 l 1
 93 798 l 1
 93 796 l 1
 92 796 l 1
93 796 m 1
 94 796 l 1
 94 798 l 1
 93 798 l 1
 93 796 l 1
84 785 m 1
 84 797 l 1
 85 797 l 1
 85 785 l 1
 84 785 l 1
85 796 m 1
 91 796 l 1
 91 797 l 1
 85 797 l 1
 85 796 l 1
91 795 m 1
 91 797 l 1
 92 797 l 1
 92 795 l 1
 91 795 l 1
85 794 m 1
 86 794 l 1
 86 796 l 1
 85 796 l 1
 85 794 l 1
90 795 m 1
 91 795 l 1
 91 796 l 1
 90 796 l 1
 90 795 l 1
92 795 m 1
 93 795 l 1
 93 796 l 1
 92 796 l 1
 92 795 l 1
88 794 m 1
 89 794 l 1
 89 795 l 1
 88 795 l 1
 88 794 l 1
91 794 m 1
 92 794 l 1
 92 795 l 1
 91 795 l 1
 91 794 l 1
85 790 m 1
 85 794 l 1
 86 794 l 1
 86 790 l 1
 85 790 l 1
86 793 m 1
 88 793 l 1
 88 794 l 1
 86 794 l 1
 86 793 l 1
88 790 m 1
 88 794 l 1
 89 794 l 1
 89 790 l 1
 88 790 l 1
89 793 m 1
 90 793 l 1
 90 794 l 1
 89 794 l 1
 89 793 l 1
86 791 m 1
 86 793 l 1
 88 793 l 1
 88 791 l 1
 86 791 l 1
89 791 m 1
 89 793 l 1
 90 793 l 1
 90 791 l 1
 89 791 l 1
90 791 m 1
 91 791 l 1
 91 793 l 1
 90 793 l 1
 90 791 l 1
86 790 m 1
 88 790 l 1
 88 791 l 1
 86 791 l 1
 86 790 l 1
89 790 m 1
 90 790 l 1
 90 791 l 1
 89 791 l 1
 89 790 l 1
85 786 m 1
 86 786 l 1
 86 790 l 1
 85 790 l 1
 85 786 l 1
88 789 m 1
 89 789 l 1
 89 790 l 1
 88 790 l 1
 88 789 l 1
86 786 m 1
 87 786 l 1
 87 787 l 1
 86 787 l 1
 86 786 l 1
85 785 m 1
 85 786 l 1
 87 786 l 1
 87 785 l 1
 85 785 l 1
87 785 m 1
 88 785 l 1
 88 786 l 1
 87 786 l 1
 87 785 l 1
83 784 m 1
 87 784 l 1
 87 785 l 1
 83 785 l 1
 83 784 l 1
EndSplineSet
EndChar

StartChar: H
Encoding: 72 72 7
Width: 1000
Flags: H
LayerCount: 2
Fore
SplineSet
100 799 m 1
 108 799 l 1
 108 800 l 1
 100 800 l 1
 100 799 l 1
99 798 m 1
 100 798 l 1
 100 799 l 1
 99 799 l 1
 99 798 l 1
100 797 m 1
 100 799 l 1
 108 799 l 1
 108 797 l 1
 100 797 l 1
108 798 m 1
 109 798 l 1
 109 799 l 1
 108 799 l 1
 108 798 l 1
98 797 m 1
 99 797 l 1
 99 798 l 1
 98 798 l 1
 98 797 l 1
99 786 m 1
 99 798 l 1
 100 798 l 1
 100 786 l 1
 99 786 l 1
108 795 m 1
 108 798 l 1
 109 798 l 1
 109 795 l 1
 108 795 l 1
109 795 m 1
 110 795 l 1
 110 798 l 1
 109 798 l 1
 109 795 l 1
97 795 m 1
 98 795 l 1
 98 797 l 1
 97 797 l 1
 97 795 l 1
98 787 m 1
 98 797 l 1
 99 797 l 1
 99 787 l 1
 98 787 l 1
100 796 m 1
 100 797 l 1
 102 797 l 1
 102 796 l 1
 100 796 l 1
102 796 m 1
 107 796 l 1
 107 797 l 1
 102 797 l 1
 102 796 l 1
107 796 m 1
 107 797 l 1
 108 797 l 1
 108 796 l 1
 107 796 l 1
100 795 m 1
 100 796 l 1
 101 796 l 1
 101 795 l 1
 100 795 l 1
101 795 m 1
 102 795 l 1
 102 796 l 1
 101 796 l 1
 101 795 l 1
107 795 m 1
 108 795 l 1
 108 796 l 1
 107 796 l 1
 107 795 l 1
96 789 m 1
 97 789 l 1
 97 795 l 1
 96 795 l 1
 96 789 l 1
97 789 m 1
 97 795 l 1
 98 795 l 1
 98 789 l 1
 97 789 l 1
100 789 m 1
 101 789 l 1
 101 795 l 1
 100 795 l 1
 100 789 l 1
108 794 m 1
 109 794 l 1
 109 795 l 1
 108 795 l 1
 108 794 l 1
104 792 m 1
 109 792 l 1
 109 793 l 1
 104 793 l 1
 104 792 l 1
103 791 m 1
 104 791 l 1
 104 792 l 1
 103 792 l 1
 103 791 l 1
104 790 m 1
 104 792 l 1
 109 792 l 1
 109 790 l 1
 104 790 l 1
109 791 m 1
 110 791 l 1
 110 792 l 1
 109 792 l 1
 109 791 l 1
102 790 m 1
 103 790 l 1
 103 791 l 1
 102 791 l 1
 102 790 l 1
103 790 m 1
 103 791 l 1
 104 791 l 1
 104 790 l 1
 103 790 l 1
109 787 m 1
 109 791 l 1
 110 791 l 1
 110 787 l 1
 109 787 l 1
110 787 m 1
 111 787 l 1
 111 791 l 1
 110 791 l 1
 110 787 l 1
103 789 m 1
 107 789 l 1
 107 790 l 1
 103 790 l 1
 103 789 l 1
107 789 m 1
 107 790 l 1
 109 790 l 1
 109 789 l 1
 107 789 l 1
97 787 m 1
 98 787 l 1
 98 789 l 1
 97 789 l 1
 97 787 l 1
100 785 m 1
 100 789 l 1
 101 789 l 1
 101 785 l 1
 100 785 l 1
101 788 m 1
 102 788 l 1
 102 789 l 1
 101 789 l 1
 101 788 l 1
107 788 m 1
 108 788 l 1
 108 789 l 1
 107 789 l 1
 107 788 l 1
108 786 m 1
 108 789 l 1
 109 789 l 1
 109 786 l 1
 108 786 l 1
101 785 m 1
 101 788 l 1
 102 788 l 1
 102 785 l 1
 101 785 l 1
102 787 m 1
 107 787 l 1
 107 788 l 1
 102 788 l 1
 102 787 l 1
107 785 m 1
 107 788 l 1
 108 788 l 1
 108 785 l 1
 107 785 l 1
98 786 m 1
 99 786 l 1
 99 787 l 1
 98 787 l 1
 98 786 l 1
102 785 m 1
 102 787 l 1
 107 787 l 1
 107 785 l 1
 102 785 l 1
109 786 m 1
 110 786 l 1
 110 787 l 1
 109 787 l 1
 109 786 l 1
99 785 m 1
 100 785 l 1
 100 786 l 1
 99 786 l 1
 99 785 l 1
108 785 m 1
 109 785 l 1
 109 786 l 1
 108 786 l 1
 108 785 l 1
100 784 m 1
 108 784 l 1
 108 785 l 1
 100 785 l 1
 100 784 l 1
EndSplineSet
EndChar

StartChar: I
Encoding: 73 73 8
Width: 1000
Flags: H
LayerCount: 2
Fore
SplineSet
114 799 m 1
 118 799 l 1
 118 800 l 1
 114 800 l 1
 114 799 l 1
122 799 m 1
 126 799 l 1
 126 800 l 1
 122 800 l 1
 122 799 l 1
113 797 m 1
 114 797 l 1
 114 799 l 1
 113 799 l 1
 113 797 l 1
114 797 m 1
 114 799 l 1
 118 799 l 1
 118 797 l 1
 114 797 l 1
118 797 m 1
 119 797 l 1
 119 799 l 1
 118 799 l 1
 118 797 l 1
121 797 m 1
 122 797 l 1
 122 799 l 1
 121 799 l 1
 121 797 l 1
122 797 m 1
 122 799 l 1
 126 799 l 1
 126 797 l 1
 122 797 l 1
126 797 m 1
 127 797 l 1
 127 799 l 1
 126 799 l 1
 126 797 l 1
114 787 m 1
 115 787 l 1
 115 797 l 1
 114 797 l 1
 114 787 l 1
115 785 m 1
 115 797 l 1
 117 797 l 1
 117 785 l 1
 115 785 l 1
117 794 m 1
 118 794 l 1
 118 797 l 1
 117 797 l 1
 117 794 l 1
122 794 m 1
 123 794 l 1
 123 797 l 1
 122 797 l 1
 122 794 l 1
123 785 m 1
 123 797 l 1
 125 797 l 1
 125 785 l 1
 123 785 l 1
125 787 m 1
 126 787 l 1
 126 797 l 1
 125 797 l 1
 125 787 l 1
117 790 m 1
 117 794 l 1
 118 794 l 1
 118 790 l 1
 117 790 l 1
118 793 m 1
 122 793 l 1
 122 794 l 1
 118 794 l 1
 118 793 l 1
122 790 m 1
 122 794 l 1
 123 794 l 1
 123 790 l 1
 122 790 l 1
118 791 m 1
 118 793 l 1
 122 793 l 1
 122 791 l 1
 118 791 l 1
118 790 m 1
 122 790 l 1
 122 791 l 1
 118 791 l 1
 118 790 l 1
117 787 m 1
 118 787 l 1
 118 790 l 1
 117 790 l 1
 117 787 l 1
122 787 m 1
 123 787 l 1
 123 790 l 1
 122 790 l 1
 122 787 l 1
113 785 m 1
 114 785 l 1
 114 787 l 1
 113 787 l 1
 113 785 l 1
114 785 m 1
 114 787 l 1
 115 787 l 1
 115 785 l 1
 114 785 l 1
117 785 m 1
 117 787 l 1
 118 787 l 1
 118 785 l 1
 117 785 l 1
118 785 m 1
 119 785 l 1
 119 787 l 1
 118 787 l 1
 118 785 l 1
121 785 m 1
 122 785 l 1
 122 787 l 1
 121 787 l 1
 121 785 l 1
122 785 m 1
 122 787 l 1
 123 787 l 1
 123 785 l 1
 122 785 l 1
125 785 m 1
 125 787 l 1
 126 787 l 1
 126 785 l 1
 125 785 l 1
126 785 m 1
 127 785 l 1
 127 787 l 1
 126 787 l 1
 126 785 l 1
114 784 m 1
 118 784 l 1
 118 785 l 1
 114 785 l 1
 114 784 l 1
122 784 m 1
 126 784 l 1
 126 785 l 1
 122 785 l 1
 122 784 l 1
EndSplineSet
EndChar

StartChar: J
Encoding: 74 74 9
Width: 1000
Flags: H
LayerCount: 2
Fore
SplineSet
132 799 m 1
 140 799 l 1
 140 800 l 1
 132 800 l 1
 132 799 l 1
131 798 m 1
 132 798 l 1
 132 799 l 1
 131 799 l 1
 131 798 l 1
132 797 m 1
 132 799 l 1
 140 799 l 1
 140 797 l 1
 132 797 l 1
140 798 m 1
 141 798 l 1
 141 799 l 1
 140 799 l 1
 140 798 l 1
130 796 m 1
 131 796 l 1
 131 798 l 1
 130 798 l 1
 130 796 l 1
131 796 m 1
 131 798 l 1
 132 798 l 1
 132 796 l 1
 131 796 l 1
140 796 m 1
 140 798 l 1
 141 798 l 1
 141 796 l 1
 140 796 l 1
141 796 m 1
 142 796 l 1
 142 798 l 1
 141 798 l 1
 141 796 l 1
132 796 m 1
 135 796 l 1
 135 797 l 1
 132 797 l 1
 132 796 l 1
135 785 m 1
 135 797 l 1
 137 797 l 1
 137 785 l 1
 135 785 l 1
137 796 m 1
 140 796 l 1
 140 797 l 1
 137 797 l 1
 137 796 l 1
131 795 m 1
 132 795 l 1
 132 796 l 1
 131 796 l 1
 131 795 l 1
134 793 m 1
 135 793 l 1
 135 796 l 1
 134 796 l 1
 134 793 l 1
137 793 m 1
 138 793 l 1
 138 796 l 1
 137 796 l 1
 137 793 l 1
140 795 m 1
 141 795 l 1
 141 796 l 1
 140 796 l 1
 140 795 l 1
133 791 m 1
 134 791 l 1
 134 793 l 1
 133 793 l 1
 133 791 l 1
134 791 m 1
 134 793 l 1
 135 793 l 1
 135 791 l 1
 134 791 l 1
137 791 m 1
 137 793 l 1
 138 793 l 1
 138 791 l 1
 137 791 l 1
138 791 m 1
 139 791 l 1
 139 793 l 1
 138 793 l 1
 138 791 l 1
134 787 m 1
 135 787 l 1
 135 791 l 1
 134 791 l 1
 134 787 l 1
137 787 m 1
 138 787 l 1
 138 791 l 1
 137 791 l 1
 137 787 l 1
131 788 m 1
 132 788 l 1
 132 789 l 1
 131 789 l 1
 131 788 l 1
130 786 m 1
 131 786 l 1
 131 788 l 1
 130 788 l 1
 130 786 l 1
131 786 m 1
 131 788 l 1
 132 788 l 1
 132 786 l 1
 131 786 l 1
132 787 m 1
 134 787 l 1
 134 788 l 1
 132 788 l 1
 132 787 l 1
138 787 m 1
 140 787 l 1
 140 788 l 1
 138 788 l 1
 138 787 l 1
140 786 m 1
 140 788 l 1
 141 788 l 1
 141 786 l 1
 140 786 l 1
141 786 m 1
 142 786 l 1
 142 788 l 1
 141 788 l 1
 141 786 l 1
132 785 m 1
 132 787 l 1
 135 787 l 1
 135 785 l 1
 132 785 l 1
137 785 m 1
 137 787 l 1
 140 787 l 1
 140 785 l 1
 137 785 l 1
131 785 m 1
 132 785 l 1
 132 786 l 1
 131 786 l 1
 131 785 l 1
140 785 m 1
 141 785 l 1
 141 786 l 1
 140 786 l 1
 140 785 l 1
132 784 m 1
 140 784 l 1
 140 785 l 1
 132 785 l 1
 132 784 l 1
EndSplineSet
EndChar

StartChar: K
Encoding: 75 75 10
Width: 1000
Flags: H
LayerCount: 2
Fore
SplineSet
151 799 m 1
 158 799 l 1
 158 800 l 1
 151 800 l 1
 151 799 l 1
150 798 m 1
 151 798 l 1
 151 799 l 1
 150 799 l 1
 150 798 l 1
151 798 m 1
 151 799 l 1
 158 799 l 1
 158 798 l 1
 151 798 l 1
158 798 m 1
 159 798 l 1
 159 799 l 1
 158 799 l 1
 158 798 l 1
151 797 m 1
 152 797 l 1
 152 798 l 1
 151 798 l 1
 151 797 l 1
152 797 m 1
 152 798 l 1
 157 798 l 1
 157 797 l 1
 152 797 l 1
157 797 m 1
 158 797 l 1
 158 798 l 1
 157 798 l 1
 157 797 l 1
152 796 m 1
 154 796 l 1
 154 797 l 1
 152 797 l 1
 152 796 l 1
154 786 m 1
 154 797 l 1
 156 797 l 1
 156 786 l 1
 154 786 l 1
156 786 m 1
 157 786 l 1
 157 797 l 1
 156 797 l 1
 156 786 l 1
153 789 m 1
 154 789 l 1
 154 796 l 1
 153 796 l 1
 153 789 l 1
147 791 m 1
 148 791 l 1
 148 792 l 1
 147 792 l 1
 147 791 l 1
146 786 m 1
 147 786 l 1
 147 791 l 1
 146 791 l 1
 146 786 l 1
147 786 m 1
 147 791 l 1
 148 791 l 1
 148 786 l 1
 147 786 l 1
148 790 m 1
 149 790 l 1
 149 791 l 1
 148 791 l 1
 148 790 l 1
148 785 m 1
 148 790 l 1
 149 790 l 1
 149 785 l 1
 148 785 l 1
149 788 m 1
 150 788 l 1
 150 790 l 1
 149 790 l 1
 149 788 l 1
152 787 m 1
 153 787 l 1
 153 789 l 1
 152 789 l 1
 152 787 l 1
153 785 m 1
 153 789 l 1
 154 789 l 1
 154 785 l 1
 153 785 l 1
149 785 m 1
 149 788 l 1
 150 788 l 1
 150 785 l 1
 149 785 l 1
150 787 m 1
 152 787 l 1
 152 788 l 1
 150 788 l 1
 150 787 l 1
150 785 m 1
 150 787 l 1
 153 787 l 1
 153 785 l 1
 150 785 l 1
147 785 m 1
 148 785 l 1
 148 786 l 1
 147 786 l 1
 147 785 l 1
154 785 m 1
 154 786 l 1
 155 786 l 1
 155 785 l 1
 154 785 l 1
155 785 m 1
 156 785 l 1
 156 786 l 1
 155 786 l 1
 155 785 l 1
148 784 m 1
 155 784 l 1
 155 785 l 1
 148 785 l 1
 148 784 l 1
EndSplineSet
EndChar

StartChar: L
Encoding: 76 76 11
Width: 1000
Flags: H
LayerCount: 2
Fore
SplineSet
2 783 m 1
 6 783 l 1
 6 784 l 1
 2 784 l 1
 2 783 l 1
11 783 m 1
 14 783 l 1
 14 784 l 1
 11 784 l 1
 11 783 l 1
1 782 m 1
 2 782 l 1
 2 783 l 1
 1 783 l 1
 1 782 l 1
2 782 m 1
 2 783 l 1
 6 783 l 1
 6 782 l 1
 2 782 l 1
6 778 m 1
 7 778 l 1
 7 783 l 1
 6 783 l 1
 6 778 l 1
10 782 m 1
 11 782 l 1
 11 783 l 1
 10 783 l 1
 10 782 l 1
11 782 m 1
 11 783 l 1
 14 783 l 1
 14 782 l 1
 11 782 l 1
14 782 m 1
 15 782 l 1
 15 783 l 1
 14 783 l 1
 14 782 l 1
2 781 m 1
 3 781 l 1
 3 782 l 1
 2 782 l 1
 2 781 l 1
3 781 m 1
 3 782 l 1
 6 782 l 1
 6 781 l 1
 3 781 l 1
9 781 m 1
 10 781 l 1
 10 782 l 1
 9 782 l 1
 9 781 l 1
10 781 m 1
 10 782 l 1
 13 782 l 1
 13 781 l 1
 10 781 l 1
13 781 m 1
 14 781 l 1
 14 782 l 1
 13 782 l 1
 13 781 l 1
3 771 m 1
 4 771 l 1
 4 781 l 1
 3 781 l 1
 3 771 l 1
4 769 m 1
 4 781 l 1
 6 781 l 1
 6 769 l 1
 4 769 l 1
8 780 m 1
 9 780 l 1
 9 781 l 1
 8 781 l 1
 8 780 l 1
9 780 m 1
 9 781 l 1
 12 781 l 1
 12 780 l 1
 9 780 l 1
12 780 m 1
 13 780 l 1
 13 781 l 1
 12 781 l 1
 12 780 l 1
7 779 m 1
 8 779 l 1
 8 780 l 1
 7 780 l 1
 7 779 l 1
8 779 m 1
 8 780 l 1
 11 780 l 1
 11 779 l 1
 8 779 l 1
11 779 m 1
 12 779 l 1
 12 780 l 1
 11 780 l 1
 11 779 l 1
7 778 m 1
 7 779 l 1
 10 779 l 1
 10 778 l 1
 7 778 l 1
10 778 m 1
 11 778 l 1
 11 779 l 1
 10 779 l 1
 10 778 l 1
6 777 m 1
 6 778 l 1
 9 778 l 1
 9 777 l 1
 6 777 l 1
9 777 m 1
 10 777 l 1
 10 778 l 1
 9 778 l 1
 9 777 l 1
6 774 m 1
 6 777 l 1
 8 777 l 1
 8 774 l 1
 6 774 l 1
8 775 m 1
 9 775 l 1
 9 777 l 1
 8 777 l 1
 8 775 l 1
8 772 m 1
 8 775 l 1
 9 775 l 1
 9 772 l 1
 8 772 l 1
9 774 m 1
 10 774 l 1
 10 775 l 1
 9 775 l 1
 9 774 l 1
6 769 m 1
 7 769 l 1
 7 774 l 1
 6 774 l 1
 6 769 l 1
7 773 m 1
 7 774 l 1
 8 774 l 1
 8 773 l 1
 7 773 l 1
9 771 m 1
 9 774 l 1
 10 774 l 1
 10 771 l 1
 9 771 l 1
10 773 m 1
 11 773 l 1
 11 774 l 1
 10 774 l 1
 10 773 l 1
7 772 m 1
 8 772 l 1
 8 773 l 1
 7 773 l 1
 7 772 l 1
10 770 m 1
 10 773 l 1
 11 773 l 1
 11 770 l 1
 10 770 l 1
11 772 m 1
 12 772 l 1
 12 773 l 1
 11 773 l 1
 11 772 l 1
8 771 m 1
 9 771 l 1
 9 772 l 1
 8 772 l 1
 8 771 l 1
11 769 m 1
 11 772 l 1
 12 772 l 1
 12 769 l 1
 11 769 l 1
12 771 m 1
 13 771 l 1
 13 772 l 1
 12 772 l 1
 12 771 l 1
2 770 m 1
 3 770 l 1
 3 771 l 1
 2 771 l 1
 2 770 l 1
3 769 m 1
 3 771 l 1
 4 771 l 1
 4 769 l 1
 3 769 l 1
9 770 m 1
 10 770 l 1
 10 771 l 1
 9 771 l 1
 9 770 l 1
12 769 m 1
 12 771 l 1
 13 771 l 1
 13 769 l 1
 12 769 l 1
13 770 m 1
 14 770 l 1
 14 771 l 1
 13 771 l 1
 13 770 l 1
1 769 m 1
 2 769 l 1
 2 770 l 1
 1 770 l 1
 1 769 l 1
2 769 m 1
 2 770 l 1
 3 770 l 1
 3 769 l 1
 2 769 l 1
10 769 m 1
 11 769 l 1
 11 770 l 1
 10 770 l 1
 10 769 l 1
13 769 m 1
 13 770 l 1
 14 770 l 1
 14 769 l 1
 13 769 l 1
14 769 m 1
 15 769 l 1
 15 770 l 1
 14 770 l 1
 14 769 l 1
2 768 m 1
 6 768 l 1
 6 769 l 1
 2 769 l 1
 2 768 l 1
11 768 m 1
 14 768 l 1
 14 769 l 1
 11 769 l 1
 11 768 l 1
EndSplineSet
EndChar

StartChar: M
Encoding: 77 77 12
Width: 1000
Flags: H
LayerCount: 2
Fore
SplineSet
20 783 m 1
 24 783 l 1
 24 784 l 1
 20 784 l 1
 20 783 l 1
19 770 m 1
 20 770 l 1
 20 783 l 1
 19 783 l 1
 19 770 l 1
20 782 m 1
 20 783 l 1
 24 783 l 1
 24 782 l 1
 20 782 l 1
24 782 m 1
 25 782 l 1
 25 783 l 1
 24 783 l 1
 24 782 l 1
20 781 m 1
 20 782 l 1
 23 782 l 1
 23 781 l 1
 20 781 l 1
23 781 m 1
 24 781 l 1
 24 782 l 1
 23 782 l 1
 23 781 l 1
20 770 m 1
 20 781 l 1
 22 781 l 1
 22 770 l 1
 20 770 l 1
22 772 m 1
 23 772 l 1
 23 781 l 1
 22 781 l 1
 22 772 l 1
28 774 m 1
 30 774 l 1
 30 775 l 1
 28 775 l 1
 28 774 l 1
27 771 m 1
 28 771 l 1
 28 774 l 1
 27 774 l 1
 27 771 l 1
28 770 m 1
 28 774 l 1
 30 774 l 1
 30 770 l 1
 28 770 l 1
30 770 m 1
 31 770 l 1
 31 774 l 1
 30 774 l 1
 30 770 l 1
22 769 m 1
 22 772 l 1
 23 772 l 1
 23 769 l 1
 22 769 l 1
23 771 m 1
 27 771 l 1
 27 772 l 1
 23 772 l 1
 23 771 l 1
23 769 m 1
 23 771 l 1
 28 771 l 1
 28 769 l 1
 23 769 l 1
20 769 m 1
 21 769 l 1
 21 770 l 1
 20 770 l 1
 20 769 l 1
21 769 m 1
 21 770 l 1
 22 770 l 1
 22 769 l 1
 21 769 l 1
28 769 m 1
 28 770 l 1
 29 770 l 1
 29 769 l 1
 28 769 l 1
29 769 m 1
 30 769 l 1
 30 770 l 1
 29 770 l 1
 29 769 l 1
21 768 m 1
 29 768 l 1
 29 769 l 1
 21 769 l 1
 21 768 l 1
EndSplineSet
EndChar

StartChar: N
Encoding: 78 78 13
Width: 1000
Flags: H
LayerCount: 2
Fore
SplineSet
35 783 m 1
 39 783 l 1
 39 784 l 1
 35 784 l 1
 35 783 l 1
41 783 m 1
 45 783 l 1
 45 784 l 1
 41 784 l 1
 41 783 l 1
34 782 m 1
 35 782 l 1
 35 783 l 1
 34 783 l 1
 34 782 l 1
35 781 m 1
 35 783 l 1
 39 783 l 1
 39 781 l 1
 35 781 l 1
39 782 m 1
 41 782 l 1
 41 783 l 1
 39 783 l 1
 39 782 l 1
41 781 m 1
 41 783 l 1
 45 783 l 1
 45 781 l 1
 41 781 l 1
45 782 m 1
 46 782 l 1
 46 783 l 1
 45 783 l 1
 45 782 l 1
33 771 m 1
 34 771 l 1
 34 782 l 1
 33 782 l 1
 33 771 l 1
34 769 m 1
 34 782 l 1
 35 782 l 1
 35 769 l 1
 34 769 l 1
39 776 m 1
 39 782 l 1
 41 782 l 1
 41 776 l 1
 39 776 l 1
45 769 m 1
 45 782 l 1
 46 782 l 1
 46 769 l 1
 45 769 l 1
46 771 m 1
 47 771 l 1
 47 782 l 1
 46 782 l 1
 46 771 l 1
35 780 m 1
 35 781 l 1
 37 781 l 1
 37 780 l 1
 35 780 l 1
37 780 m 1
 38 780 l 1
 38 781 l 1
 37 781 l 1
 37 780 l 1
38 780 m 1
 38 781 l 1
 39 781 l 1
 39 780 l 1
 38 780 l 1
41 780 m 1
 41 781 l 1
 42 781 l 1
 42 780 l 1
 41 780 l 1
42 780 m 1
 43 780 l 1
 43 781 l 1
 42 781 l 1
 42 780 l 1
43 780 m 1
 43 781 l 1
 45 781 l 1
 45 780 l 1
 43 780 l 1
35 769 m 1
 35 780 l 1
 36 780 l 1
 36 769 l 1
 35 769 l 1
36 771 m 1
 37 771 l 1
 37 780 l 1
 36 780 l 1
 36 771 l 1
38 778 m 1
 39 778 l 1
 39 780 l 1
 38 780 l 1
 38 778 l 1
41 778 m 1
 42 778 l 1
 42 780 l 1
 41 780 l 1
 41 778 l 1
43 771 m 1
 44 771 l 1
 44 780 l 1
 43 780 l 1
 43 771 l 1
44 769 m 1
 44 780 l 1
 45 780 l 1
 45 769 l 1
 44 769 l 1
37 777 m 1
 38 777 l 1
 38 778 l 1
 37 778 l 1
 37 777 l 1
38 777 m 1
 38 778 l 1
 39 778 l 1
 39 777 l 1
 38 777 l 1
41 777 m 1
 41 778 l 1
 42 778 l 1
 42 777 l 1
 41 777 l 1
42 777 m 1
 43 777 l 1
 43 778 l 1
 42 778 l 1
 42 777 l 1
38 776 m 1
 39 776 l 1
 39 777 l 1
 38 777 l 1
 38 776 l 1
41 776 m 1
 42 776 l 1
 42 777 l 1
 41 777 l 1
 41 776 l 1
39 775 m 1
 41 775 l 1
 41 776 l 1
 39 776 l 1
 39 775 l 1
32 769 m 1
 33 769 l 1
 33 771 l 1
 32 771 l 1
 32 769 l 1
33 769 m 1
 33 771 l 1
 34 771 l 1
 34 769 l 1
 33 769 l 1
36 769 m 1
 36 771 l 1
 37 771 l 1
 37 769 l 1
 36 769 l 1
37 769 m 1
 38 769 l 1
 38 771 l 1
 37 771 l 1
 37 769 l 1
42 769 m 1
 43 769 l 1
 43 771 l 1
 42 771 l 1
 42 769 l 1
43 769 m 1
 43 771 l 1
 44 771 l 1
 44 769 l 1
 43 769 l 1
46 769 m 1
 46 771 l 1
 47 771 l 1
 47 769 l 1
 46 769 l 1
47 769 m 1
 48 769 l 1
 48 771 l 1
 47 771 l 1
 47 769 l 1
33 768 m 1
 37 768 l 1
 37 769 l 1
 33 769 l 1
 33 768 l 1
43 768 m 1
 47 768 l 1
 47 769 l 1
 43 769 l 1
 43 768 l 1
EndSplineSet
EndChar

StartChar: O
Encoding: 79 79 14
Width: 1000
Flags: H
LayerCount: 2
Fore
SplineSet
52 783 m 1
 57 783 l 1
 57 784 l 1
 52 784 l 1
 52 783 l 1
51 782 m 1
 52 782 l 1
 52 783 l 1
 51 783 l 1
 51 782 l 1
52 781 m 1
 52 783 l 1
 57 783 l 1
 57 781 l 1
 52 781 l 1
57 782 m 1
 59 782 l 1
 59 783 l 1
 57 783 l 1
 57 782 l 1
50 771 m 1
 51 771 l 1
 51 782 l 1
 50 782 l 1
 50 771 l 1
51 769 m 1
 51 782 l 1
 52 782 l 1
 52 769 l 1
 51 769 l 1
57 780 m 1
 57 782 l 1
 59 782 l 1
 59 780 l 1
 57 780 l 1
59 781 m 1
 60 781 l 1
 60 782 l 1
 59 782 l 1
 59 781 l 1
52 780 m 1
 52 781 l 1
 54 781 l 1
 54 780 l 1
 52 780 l 1
54 780 m 1
 57 780 l 1
 57 781 l 1
 54 781 l 1
 54 780 l 1
59 769 m 1
 59 781 l 1
 60 781 l 1
 60 769 l 1
 59 769 l 1
60 780 m 1
 61 780 l 1
 61 781 l 1
 60 781 l 1
 60 780 l 1
52 769 m 1
 52 780 l 1
 53 780 l 1
 53 769 l 1
 52 769 l 1
53 771 m 1
 54 771 l 1
 54 780 l 1
 53 780 l 1
 53 771 l 1
57 779 m 1
 58 779 l 1
 58 780 l 1
 57 780 l 1
 57 779 l 1
58 779 m 1
 58 780 l 1
 59 780 l 1
 59 779 l 1
 58 779 l 1
60 769 m 1
 60 780 l 1
 61 780 l 1
 61 769 l 1
 60 769 l 1
61 771 m 1
 62 771 l 1
 62 780 l 1
 61 780 l 1
 61 771 l 1
58 771 m 1
 59 771 l 1
 59 779 l 1
 58 779 l 1
 58 771 l 1
49 769 m 1
 50 769 l 1
 50 771 l 1
 49 771 l 1
 49 769 l 1
50 769 m 1
 50 771 l 1
 51 771 l 1
 51 769 l 1
 50 769 l 1
53 769 m 1
 53 771 l 1
 54 771 l 1
 54 769 l 1
 53 769 l 1
54 769 m 1
 55 769 l 1
 55 771 l 1
 54 771 l 1
 54 769 l 1
57 769 m 1
 58 769 l 1
 58 771 l 1
 57 771 l 1
 57 769 l 1
58 769 m 1
 58 771 l 1
 59 771 l 1
 59 769 l 1
 58 769 l 1
61 769 m 1
 61 771 l 1
 62 771 l 1
 62 769 l 1
 61 769 l 1
62 769 m 1
 63 769 l 1
 63 771 l 1
 62 771 l 1
 62 769 l 1
50 768 m 1
 54 768 l 1
 54 769 l 1
 50 769 l 1
 50 768 l 1
58 768 m 1
 62 768 l 1
 62 769 l 1
 58 769 l 1
 58 768 l 1
EndSplineSet
EndChar

StartChar: P
Encoding: 80 80 15
Width: 1000
Flags: H
LayerCount: 2
Fore
SplineSet
68 783 m 1
 76 783 l 1
 76 784 l 1
 68 784 l 1
 68 783 l 1
67 782 m 1
 68 782 l 1
 68 783 l 1
 67 783 l 1
 67 782 l 1
68 781 m 1
 68 783 l 1
 76 783 l 1
 76 781 l 1
 68 781 l 1
76 782 m 1
 77 782 l 1
 77 783 l 1
 76 783 l 1
 76 782 l 1
66 781 m 1
 67 781 l 1
 67 782 l 1
 66 782 l 1
 66 781 l 1
67 779 m 1
 67 782 l 1
 68 782 l 1
 68 779 l 1
 67 779 l 1
76 779 m 1
 76 782 l 1
 77 782 l 1
 77 779 l 1
 76 779 l 1
77 781 m 1
 78 781 l 1
 78 782 l 1
 77 782 l 1
 77 781 l 1
65 779 m 1
 66 779 l 1
 66 781 l 1
 65 781 l 1
 65 779 l 1
66 771 m 1
 66 781 l 1
 67 781 l 1
 67 771 l 1
 66 771 l 1
68 780 m 1
 68 781 l 1
 69 781 l 1
 69 780 l 1
 68 780 l 1
69 780 m 1
 75 780 l 1
 75 781 l 1
 69 781 l 1
 69 780 l 1
75 780 m 1
 75 781 l 1
 76 781 l 1
 76 780 l 1
 75 780 l 1
77 771 m 1
 77 781 l 1
 78 781 l 1
 78 771 l 1
 77 771 l 1
78 779 m 1
 79 779 l 1
 79 781 l 1
 78 781 l 1
 78 779 l 1
68 779 m 1
 69 779 l 1
 69 780 l 1
 68 780 l 1
 68 779 l 1
75 779 m 1
 76 779 l 1
 76 780 l 1
 75 780 l 1
 75 779 l 1
64 773 m 1
 65 773 l 1
 65 779 l 1
 64 779 l 1
 64 773 l 1
65 773 m 1
 65 779 l 1
 66 779 l 1
 66 773 l 1
 65 773 l 1
67 773 m 1
 68 773 l 1
 68 779 l 1
 67 779 l 1
 67 773 l 1
76 773 m 1
 77 773 l 1
 77 779 l 1
 76 779 l 1
 76 773 l 1
78 773 m 1
 78 779 l 1
 79 779 l 1
 79 773 l 1
 78 773 l 1
79 773 m 1
 80 773 l 1
 80 779 l 1
 79 779 l 1
 79 773 l 1
65 771 m 1
 66 771 l 1
 66 773 l 1
 65 773 l 1
 65 771 l 1
67 770 m 1
 67 773 l 1
 68 773 l 1
 68 770 l 1
 67 770 l 1
68 772 m 1
 69 772 l 1
 69 773 l 1
 68 773 l 1
 68 772 l 1
75 772 m 1
 76 772 l 1
 76 773 l 1
 75 773 l 1
 75 772 l 1
76 770 m 1
 76 773 l 1
 77 773 l 1
 77 770 l 1
 76 770 l 1
78 771 m 1
 79 771 l 1
 79 773 l 1
 78 773 l 1
 78 771 l 1
68 769 m 1
 68 772 l 1
 69 772 l 1
 69 769 l 1
 68 769 l 1
69 771 m 1
 75 771 l 1
 75 772 l 1
 69 772 l 1
 69 771 l 1
75 769 m 1
 75 772 l 1
 76 772 l 1
 76 769 l 1
 75 769 l 1
66 770 m 1
 67 770 l 1
 67 771 l 1
 66 771 l 1
 66 770 l 1
69 769 m 1
 69 771 l 1
 75 771 l 1
 75 769 l 1
 69 769 l 1
77 770 m 1
 78 770 l 1
 78 771 l 1
 77 771 l 1
 77 770 l 1
67 769 m 1
 68 769 l 1
 68 770 l 1
 67 770 l 1
 67 769 l 1
76 769 m 1
 77 769 l 1
 77 770 l 1
 76 770 l 1
 76 769 l 1
68 768 m 1
 76 768 l 1
 76 769 l 1
 68 769 l 1
 68 768 l 1
EndSplineSet
EndChar

StartChar: Q
Encoding: 81 81 16
Width: 1000
Flags: H
LayerCount: 2
Fore
SplineSet
82 783 m 1
 91 783 l 1
 91 784 l 1
 82 784 l 1
 82 783 l 1
81 782 m 1
 82 782 l 1
 82 783 l 1
 81 783 l 1
 81 782 l 1
82 782 m 1
 82 783 l 1
 91 783 l 1
 91 782 l 1
 82 782 l 1
91 782 m 1
 92 782 l 1
 92 783 l 1
 91 783 l 1
 91 782 l 1
82 781 m 1
 83 781 l 1
 83 782 l 1
 82 782 l 1
 82 781 l 1
83 781 m 1
 83 782 l 1
 92 782 l 1
 92 781 l 1
 83 781 l 1
92 781 m 1
 93 781 l 1
 93 782 l 1
 92 782 l 1
 92 781 l 1
83 771 m 1
 84 771 l 1
 84 781 l 1
 83 781 l 1
 83 771 l 1
84 769 m 1
 84 781 l 1
 86 781 l 1
 86 769 l 1
 84 769 l 1
86 780 m 1
 90 780 l 1
 90 781 l 1
 86 781 l 1
 86 780 l 1
90 780 m 1
 90 781 l 1
 93 781 l 1
 93 780 l 1
 90 780 l 1
93 776 m 1
 94 776 l 1
 94 781 l 1
 93 781 l 1
 93 776 l 1
86 777 m 1
 87 777 l 1
 87 780 l 1
 86 780 l 1
 86 777 l 1
90 777 m 1
 91 777 l 1
 91 780 l 1
 90 780 l 1
 90 777 l 1
91 776 m 1
 91 780 l 1
 93 780 l 1
 93 776 l 1
 91 776 l 1
86 774 m 1
 86 777 l 1
 87 777 l 1
 87 774 l 1
 86 774 l 1
87 776 m 1
 90 776 l 1
 90 777 l 1
 87 777 l 1
 87 776 l 1
90 774 m 1
 90 777 l 1
 91 777 l 1
 91 774 l 1
 90 774 l 1
87 774 m 1
 87 776 l 1
 90 776 l 1
 90 774 l 1
 87 774 l 1
91 775 m 1
 91 776 l 1
 92 776 l 1
 92 775 l 1
 91 775 l 1
92 775 m 1
 93 775 l 1
 93 776 l 1
 92 776 l 1
 92 775 l 1
91 774 m 1
 92 774 l 1
 92 775 l 1
 91 775 l 1
 91 774 l 1
86 773 m 1
 91 773 l 1
 91 774 l 1
 86 774 l 1
 86 773 l 1
86 771 m 1
 87 771 l 1
 87 773 l 1
 86 773 l 1
 86 771 l 1
82 769 m 1
 83 769 l 1
 83 771 l 1
 82 771 l 1
 82 769 l 1
83 769 m 1
 83 771 l 1
 84 771 l 1
 84 769 l 1
 83 769 l 1
86 769 m 1
 86 771 l 1
 87 771 l 1
 87 769 l 1
 86 769 l 1
87 769 m 1
 88 769 l 1
 88 771 l 1
 87 771 l 1
 87 769 l 1
83 768 m 1
 87 768 l 1
 87 769 l 1
 83 769 l 1
 83 768 l 1
EndSplineSet
EndChar

StartChar: R
Encoding: 82 82 17
Width: 1000
Flags: H
LayerCount: 2
Fore
SplineSet
100 783 m 1
 107 783 l 1
 107 784 l 1
 100 784 l 1
 100 783 l 1
99 782 m 1
 100 782 l 1
 100 783 l 1
 99 783 l 1
 99 782 l 1
100 781 m 1
 100 783 l 1
 107 783 l 1
 107 781 l 1
 100 781 l 1
107 782 m 1
 108 782 l 1
 108 783 l 1
 107 783 l 1
 107 782 l 1
98 781 m 1
 99 781 l 1
 99 782 l 1
 98 782 l 1
 98 781 l 1
99 779 m 1
 99 782 l 1
 100 782 l 1
 100 779 l 1
 99 779 l 1
107 779 m 1
 107 782 l 1
 108 782 l 1
 108 779 l 1
 107 779 l 1
108 781 m 1
 109 781 l 1
 109 782 l 1
 108 782 l 1
 108 781 l 1
97 779 m 1
 98 779 l 1
 98 781 l 1
 97 781 l 1
 97 779 l 1
98 771 m 1
 98 781 l 1
 99 781 l 1
 99 771 l 1
 98 771 l 1
100 780 m 1
 100 781 l 1
 101 781 l 1
 101 780 l 1
 100 780 l 1
101 780 m 1
 106 780 l 1
 106 781 l 1
 101 781 l 1
 101 780 l 1
106 780 m 1
 106 781 l 1
 107 781 l 1
 107 780 l 1
 106 780 l 1
108 769 m 1
 108 781 l 1
 109 781 l 1
 109 769 l 1
 108 769 l 1
109 779 m 1
 110 779 l 1
 110 781 l 1
 109 781 l 1
 109 779 l 1
100 779 m 1
 101 779 l 1
 101 780 l 1
 100 780 l 1
 100 779 l 1
106 779 m 1
 107 779 l 1
 107 780 l 1
 106 780 l 1
 106 779 l 1
96 773 m 1
 97 773 l 1
 97 779 l 1
 96 779 l 1
 96 773 l 1
97 773 m 1
 97 779 l 1
 98 779 l 1
 98 773 l 1
 97 773 l 1
99 773 m 1
 100 773 l 1
 100 779 l 1
 99 779 l 1
 99 773 l 1
107 773 m 1
 108 773 l 1
 108 779 l 1
 107 779 l 1
 107 773 l 1
109 773 m 1
 109 779 l 1
 110 779 l 1
 110 773 l 1
 109 773 l 1
110 773 m 1
 111 773 l 1
 111 779 l 1
 110 779 l 1
 110 773 l 1
97 771 m 1
 98 771 l 1
 98 773 l 1
 97 773 l 1
 97 771 l 1
99 770 m 1
 99 773 l 1
 100 773 l 1
 100 770 l 1
 99 770 l 1
100 772 m 1
 101 772 l 1
 101 773 l 1
 100 773 l 1
 100 772 l 1
106 772 m 1
 107 772 l 1
 107 773 l 1
 106 773 l 1
 106 772 l 1
107 770 m 1
 107 773 l 1
 108 773 l 1
 108 770 l 1
 107 770 l 1
109 771 m 1
 110 771 l 1
 110 773 l 1
 109 773 l 1
 109 771 l 1
100 769 m 1
 100 772 l 1
 101 772 l 1
 101 769 l 1
 100 769 l 1
101 771 m 1
 106 771 l 1
 106 772 l 1
 101 772 l 1
 101 771 l 1
106 769 m 1
 106 772 l 1
 107 772 l 1
 107 769 l 1
 106 769 l 1
98 770 m 1
 99 770 l 1
 99 771 l 1
 98 771 l 1
 98 770 l 1
101 769 m 1
 101 771 l 1
 106 771 l 1
 106 769 l 1
 101 769 l 1
109 769 m 1
 109 771 l 1
 110 771 l 1
 110 769 l 1
 109 769 l 1
110 770 m 1
 111 770 l 1
 111 771 l 1
 110 771 l 1
 110 770 l 1
99 769 m 1
 100 769 l 1
 100 770 l 1
 99 770 l 1
 99 769 l 1
107 769 m 1
 108 769 l 1
 108 770 l 1
 107 770 l 1
 107 769 l 1
110 769 m 1
 110 770 l 1
 111 770 l 1
 111 769 l 1
 110 769 l 1
111 769 m 1
 112 769 l 1
 112 770 l 1
 111 770 l 1
 111 769 l 1
100 768 m 1
 107 768 l 1
 107 769 l 1
 100 769 l 1
 100 768 l 1
108 768 m 1
 111 768 l 1
 111 769 l 1
 108 769 l 1
 108 768 l 1
EndSplineSet
EndChar

StartChar: S
Encoding: 83 83 18
Width: 1000
Flags: H
LayerCount: 2
Fore
SplineSet
114 783 m 1
 123 783 l 1
 123 784 l 1
 114 784 l 1
 114 783 l 1
113 782 m 1
 114 782 l 1
 114 783 l 1
 113 783 l 1
 113 782 l 1
114 782 m 1
 114 783 l 1
 123 783 l 1
 123 782 l 1
 114 782 l 1
123 782 m 1
 124 782 l 1
 124 783 l 1
 123 783 l 1
 123 782 l 1
114 781 m 1
 115 781 l 1
 115 782 l 1
 114 782 l 1
 114 781 l 1
115 781 m 1
 115 782 l 1
 124 782 l 1
 124 781 l 1
 115 781 l 1
124 781 m 1
 125 781 l 1
 125 782 l 1
 124 782 l 1
 124 781 l 1
115 771 m 1
 116 771 l 1
 116 781 l 1
 115 781 l 1
 115 771 l 1
116 769 m 1
 116 781 l 1
 118 781 l 1
 118 769 l 1
 116 769 l 1
118 780 m 1
 122 780 l 1
 122 781 l 1
 118 781 l 1
 118 780 l 1
122 780 m 1
 122 781 l 1
 125 781 l 1
 125 780 l 1
 122 780 l 1
125 777 m 1
 126 777 l 1
 126 781 l 1
 125 781 l 1
 125 777 l 1
118 778 m 1
 119 778 l 1
 119 780 l 1
 118 780 l 1
 118 778 l 1
122 778 m 1
 123 778 l 1
 123 780 l 1
 122 780 l 1
 122 778 l 1
123 777 m 1
 123 780 l 1
 125 780 l 1
 125 777 l 1
 123 777 l 1
118 774 m 1
 118 778 l 1
 119 778 l 1
 119 774 l 1
 118 774 l 1
119 777 m 1
 122 777 l 1
 122 778 l 1
 119 778 l 1
 119 777 l 1
122 775 m 1
 122 778 l 1
 123 778 l 1
 123 775 l 1
 122 775 l 1
119 775 m 1
 119 777 l 1
 122 777 l 1
 122 775 l 1
 119 775 l 1
123 776 m 1
 123 777 l 1
 124 777 l 1
 124 776 l 1
 123 776 l 1
124 776 m 1
 125 776 l 1
 125 777 l 1
 124 777 l 1
 124 776 l 1
123 775 m 1
 124 775 l 1
 124 776 l 1
 123 776 l 1
 123 775 l 1
119 773 m 1
 119 775 l 1
 121 775 l 1
 121 773 l 1
 119 773 l 1
121 774 m 1
 123 774 l 1
 123 775 l 1
 121 775 l 1
 121 774 l 1
118 769 m 1
 119 769 l 1
 119 774 l 1
 118 774 l 1
 118 769 l 1
121 771 m 1
 121 774 l 1
 122 774 l 1
 122 771 l 1
 121 771 l 1
122 773 m 1
 123 773 l 1
 123 774 l 1
 122 774 l 1
 122 773 l 1
119 772 m 1
 120 772 l 1
 120 773 l 1
 119 773 l 1
 119 772 l 1
120 772 m 1
 120 773 l 1
 121 773 l 1
 121 772 l 1
 120 772 l 1
122 770 m 1
 122 773 l 1
 123 773 l 1
 123 770 l 1
 122 770 l 1
123 772 m 1
 124 772 l 1
 124 773 l 1
 123 773 l 1
 123 772 l 1
120 771 m 1
 121 771 l 1
 121 772 l 1
 120 772 l 1
 120 771 l 1
123 769 m 1
 123 772 l 1
 124 772 l 1
 124 769 l 1
 123 769 l 1
124 771 m 1
 125 771 l 1
 125 772 l 1
 124 772 l 1
 124 771 l 1
114 770 m 1
 115 770 l 1
 115 771 l 1
 114 771 l 1
 114 770 l 1
115 769 m 1
 115 771 l 1
 116 771 l 1
 116 769 l 1
 115 769 l 1
121 770 m 1
 122 770 l 1
 122 771 l 1
 121 771 l 1
 121 770 l 1
124 769 m 1
 124 771 l 1
 125 771 l 1
 125 769 l 1
 124 769 l 1
125 770 m 1
 126 770 l 1
 126 771 l 1
 125 771 l 1
 125 770 l 1
113 769 m 1
 114 769 l 1
 114 770 l 1
 113 770 l 1
 113 769 l 1
114 769 m 1
 114 770 l 1
 115 770 l 1
 115 769 l 1
 114 769 l 1
122 769 m 1
 123 769 l 1
 123 770 l 1
 122 770 l 1
 122 769 l 1
125 769 m 1
 125 770 l 1
 126 770 l 1
 126 769 l 1
 125 769 l 1
126 769 m 1
 127 769 l 1
 127 770 l 1
 126 770 l 1
 126 769 l 1
114 768 m 1
 118 768 l 1
 118 769 l 1
 114 769 l 1
 114 768 l 1
123 768 m 1
 126 768 l 1
 126 769 l 1
 123 769 l 1
 123 768 l 1
EndSplineSet
EndChar

StartChar: T
Encoding: 84 84 19
Width: 1000
Flags: H
LayerCount: 2
Fore
SplineSet
132 783 m 1
 139 783 l 1
 139 784 l 1
 132 784 l 1
 132 783 l 1
131 782 m 1
 132 782 l 1
 132 783 l 1
 131 783 l 1
 131 782 l 1
132 781 m 1
 132 783 l 1
 139 783 l 1
 139 781 l 1
 132 781 l 1
139 782 m 1
 140 782 l 1
 140 783 l 1
 139 783 l 1
 139 782 l 1
130 779 m 1
 131 779 l 1
 131 782 l 1
 130 782 l 1
 130 779 l 1
131 779 m 1
 131 782 l 1
 132 782 l 1
 132 779 l 1
 131 779 l 1
139 779 m 1
 139 782 l 1
 140 782 l 1
 140 779 l 1
 139 779 l 1
140 779 m 1
 141 779 l 1
 141 782 l 1
 140 782 l 1
 140 779 l 1
132 777 m 1
 132 781 l 1
 133 781 l 1
 133 777 l 1
 132 777 l 1
133 780 m 1
 138 780 l 1
 138 781 l 1
 133 781 l 1
 133 780 l 1
138 780 m 1
 138 781 l 1
 139 781 l 1
 139 780 l 1
 138 780 l 1
133 779 m 1
 134 779 l 1
 134 780 l 1
 133 780 l 1
 133 779 l 1
138 779 m 1
 139 779 l 1
 139 780 l 1
 138 780 l 1
 138 779 l 1
131 777 m 1
 132 777 l 1
 132 779 l 1
 131 779 l 1
 131 777 l 1
133 776 m 1
 133 779 l 1
 134 779 l 1
 134 776 l 1
 133 776 l 1
134 778 m 1
 136 778 l 1
 136 779 l 1
 134 779 l 1
 134 778 l 1
139 778 m 1
 140 778 l 1
 140 779 l 1
 139 779 l 1
 139 778 l 1
134 776 m 1
 134 778 l 1
 136 778 l 1
 136 776 l 1
 134 776 l 1
136 777 m 1
 138 777 l 1
 138 778 l 1
 136 778 l 1
 136 777 l 1
132 776 m 1
 133 776 l 1
 133 777 l 1
 132 777 l 1
 132 776 l 1
136 775 m 1
 136 777 l 1
 138 777 l 1
 138 775 l 1
 136 775 l 1
138 776 m 1
 139 776 l 1
 139 777 l 1
 138 777 l 1
 138 776 l 1
133 775 m 1
 135 775 l 1
 135 776 l 1
 133 776 l 1
 133 775 l 1
135 775 m 1
 135 776 l 1
 136 776 l 1
 136 775 l 1
 135 775 l 1
138 774 m 1
 138 776 l 1
 139 776 l 1
 139 774 l 1
 138 774 l 1
139 775 m 1
 140 775 l 1
 140 776 l 1
 139 776 l 1
 139 775 l 1
135 774 m 1
 137 774 l 1
 137 775 l 1
 135 775 l 1
 135 774 l 1
137 774 m 1
 137 775 l 1
 138 775 l 1
 138 774 l 1
 137 774 l 1
139 769 m 1
 139 775 l 1
 140 775 l 1
 140 769 l 1
 139 769 l 1
140 774 m 1
 141 774 l 1
 141 775 l 1
 140 775 l 1
 140 774 l 1
131 773 m 1
 132 773 l 1
 132 774 l 1
 131 774 l 1
 131 773 l 1
137 773 m 1
 139 773 l 1
 139 774 l 1
 137 774 l 1
 137 773 l 1
140 770 m 1
 140 774 l 1
 141 774 l 1
 141 770 l 1
 140 770 l 1
141 770 m 1
 142 770 l 1
 142 774 l 1
 141 774 l 1
 141 770 l 1
130 770 m 1
 131 770 l 1
 131 773 l 1
 130 773 l 1
 130 770 l 1
131 770 m 1
 131 773 l 1
 132 773 l 1
 132 770 l 1
 131 770 l 1
132 772 m 1
 133 772 l 1
 133 773 l 1
 132 773 l 1
 132 772 l 1
138 771 m 1
 139 771 l 1
 139 773 l 1
 138 773 l 1
 138 771 l 1
132 769 m 1
 132 772 l 1
 133 772 l 1
 133 769 l 1
 132 769 l 1
133 771 m 1
 138 771 l 1
 138 772 l 1
 133 772 l 1
 133 771 l 1
133 769 m 1
 133 771 l 1
 139 771 l 1
 139 769 l 1
 133 769 l 1
131 769 m 1
 132 769 l 1
 132 770 l 1
 131 770 l 1
 131 769 l 1
140 769 m 1
 141 769 l 1
 141 770 l 1
 140 770 l 1
 140 769 l 1
132 768 m 1
 140 768 l 1
 140 769 l 1
 132 769 l 1
 132 768 l 1
EndSplineSet
EndChar

StartChar: U
Encoding: 85 85 20
Width: 1000
Flags: H
LayerCount: 2
Fore
SplineSet
148 783 m 1
 156 783 l 1
 156 784 l 1
 148 784 l 1
 148 783 l 1
147 782 m 1
 148 782 l 1
 148 783 l 1
 147 783 l 1
 147 782 l 1
148 781 m 1
 148 783 l 1
 156 783 l 1
 156 781 l 1
 148 781 l 1
156 782 m 1
 157 782 l 1
 157 783 l 1
 156 783 l 1
 156 782 l 1
146 780 m 1
 147 780 l 1
 147 782 l 1
 146 782 l 1
 146 780 l 1
147 780 m 1
 147 782 l 1
 148 782 l 1
 148 780 l 1
 147 780 l 1
156 780 m 1
 156 782 l 1
 157 782 l 1
 157 780 l 1
 156 780 l 1
157 780 m 1
 158 780 l 1
 158 782 l 1
 157 782 l 1
 157 780 l 1
148 780 m 1
 151 780 l 1
 151 781 l 1
 148 781 l 1
 148 780 l 1
151 769 m 1
 151 781 l 1
 153 781 l 1
 153 769 l 1
 151 769 l 1
153 780 m 1
 156 780 l 1
 156 781 l 1
 153 781 l 1
 153 780 l 1
147 779 m 1
 148 779 l 1
 148 780 l 1
 147 780 l 1
 147 779 l 1
150 777 m 1
 151 777 l 1
 151 780 l 1
 150 780 l 1
 150 777 l 1
153 777 m 1
 154 777 l 1
 154 780 l 1
 153 780 l 1
 153 777 l 1
156 779 m 1
 157 779 l 1
 157 780 l 1
 156 780 l 1
 156 779 l 1
149 775 m 1
 150 775 l 1
 150 777 l 1
 149 777 l 1
 149 775 l 1
150 775 m 1
 150 777 l 1
 151 777 l 1
 151 775 l 1
 150 775 l 1
153 775 m 1
 153 777 l 1
 154 777 l 1
 154 775 l 1
 153 775 l 1
154 775 m 1
 155 775 l 1
 155 777 l 1
 154 777 l 1
 154 775 l 1
150 771 m 1
 151 771 l 1
 151 775 l 1
 150 775 l 1
 150 771 l 1
153 771 m 1
 154 771 l 1
 154 775 l 1
 153 775 l 1
 153 771 l 1
149 770 m 1
 150 770 l 1
 150 771 l 1
 149 771 l 1
 149 770 l 1
150 769 m 1
 150 771 l 1
 151 771 l 1
 151 769 l 1
 150 769 l 1
153 769 m 1
 153 771 l 1
 154 771 l 1
 154 769 l 1
 153 769 l 1
154 770 m 1
 155 770 l 1
 155 771 l 1
 154 771 l 1
 154 770 l 1
148 769 m 1
 149 769 l 1
 149 770 l 1
 148 770 l 1
 148 769 l 1
149 769 m 1
 149 770 l 1
 150 770 l 1
 150 769 l 1
 149 769 l 1
154 769 m 1
 154 770 l 1
 155 770 l 1
 155 769 l 1
 154 769 l 1
155 769 m 1
 156 769 l 1
 156 770 l 1
 155 770 l 1
 155 769 l 1
149 768 m 1
 155 768 l 1
 155 769 l 1
 149 769 l 1
 149 768 l 1
EndSplineSet
EndChar

StartChar: V
Encoding: 86 86 21
Width: 1000
Flags: H
LayerCount: 2
Fore
SplineSet
158 798 m 1
 159 798 l 1
 159 799 l 1
 158 799 l 1
 158 798 l 1
2 767 m 1
 6 767 l 1
 6 768 l 1
 2 768 l 1
 2 767 l 1
10 767 m 1
 14 767 l 1
 14 768 l 1
 10 768 l 1
 10 767 l 1
1 765 m 1
 2 765 l 1
 2 767 l 1
 1 767 l 1
 1 765 l 1
2 765 m 1
 2 767 l 1
 6 767 l 1
 6 765 l 1
 2 765 l 1
6 765 m 1
 7 765 l 1
 7 767 l 1
 6 767 l 1
 6 765 l 1
9 765 m 1
 10 765 l 1
 10 767 l 1
 9 767 l 1
 9 765 l 1
10 765 m 1
 10 767 l 1
 14 767 l 1
 14 765 l 1
 10 765 l 1
14 765 m 1
 15 765 l 1
 15 767 l 1
 14 767 l 1
 14 765 l 1
2 755 m 1
 3 755 l 1
 3 765 l 1
 2 765 l 1
 2 755 l 1
3 755 m 1
 3 765 l 1
 5 765 l 1
 5 755 l 1
 3 755 l 1
5 756 m 1
 6 756 l 1
 6 765 l 1
 5 765 l 1
 5 756 l 1
10 756 m 1
 11 756 l 1
 11 765 l 1
 10 765 l 1
 10 756 l 1
11 755 m 1
 11 765 l 1
 13 765 l 1
 13 755 l 1
 11 755 l 1
13 755 m 1
 14 755 l 1
 14 765 l 1
 13 765 l 1
 13 755 l 1
5 753 m 1
 5 756 l 1
 6 756 l 1
 6 753 l 1
 5 753 l 1
6 755 m 1
 10 755 l 1
 10 756 l 1
 6 756 l 1
 6 755 l 1
10 753 m 1
 10 756 l 1
 11 756 l 1
 11 753 l 1
 10 753 l 1
3 754 m 1
 4 754 l 1
 4 755 l 1
 3 755 l 1
 3 754 l 1
4 754 m 1
 4 755 l 1
 5 755 l 1
 5 754 l 1
 4 754 l 1
6 753 m 1
 6 755 l 1
 10 755 l 1
 10 753 l 1
 6 753 l 1
11 754 m 1
 11 755 l 1
 12 755 l 1
 12 754 l 1
 11 754 l 1
12 754 m 1
 13 754 l 1
 13 755 l 1
 12 755 l 1
 12 754 l 1
4 753 m 1
 5 753 l 1
 5 754 l 1
 4 754 l 1
 4 753 l 1
11 753 m 1
 12 753 l 1
 12 754 l 1
 11 754 l 1
 11 753 l 1
5 752 m 1
 11 752 l 1
 11 753 l 1
 5 753 l 1
 5 752 l 1
EndSplineSet
EndChar

StartChar: W
Encoding: 87 87 22
Width: 1000
Flags: H
LayerCount: 2
Fore
SplineSet
17 767 m 1
 21 767 l 1
 21 768 l 1
 17 768 l 1
 17 767 l 1
27 767 m 1
 31 767 l 1
 31 768 l 1
 27 768 l 1
 27 767 l 1
16 765 m 1
 17 765 l 1
 17 767 l 1
 16 767 l 1
 16 765 l 1
17 765 m 1
 17 767 l 1
 21 767 l 1
 21 765 l 1
 17 765 l 1
21 765 m 1
 22 765 l 1
 22 767 l 1
 21 767 l 1
 21 765 l 1
26 765 m 1
 27 765 l 1
 27 767 l 1
 26 767 l 1
 26 765 l 1
27 765 m 1
 27 767 l 1
 31 767 l 1
 31 765 l 1
 27 765 l 1
31 765 m 1
 32 765 l 1
 32 767 l 1
 31 767 l 1
 31 765 l 1
17 763 m 1
 18 763 l 1
 18 765 l 1
 17 765 l 1
 17 763 l 1
18 763 m 1
 18 765 l 1
 20 765 l 1
 20 763 l 1
 18 763 l 1
20 764 m 1
 21 764 l 1
 21 765 l 1
 20 765 l 1
 20 764 l 1
27 764 m 1
 28 764 l 1
 28 765 l 1
 27 765 l 1
 27 764 l 1
28 763 m 1
 28 765 l 1
 30 765 l 1
 30 763 l 1
 28 763 l 1
30 763 m 1
 31 763 l 1
 31 765 l 1
 30 765 l 1
 30 763 l 1
20 758 m 1
 20 764 l 1
 21 764 l 1
 21 758 l 1
 20 758 l 1
21 761 m 1
 22 761 l 1
 22 764 l 1
 21 764 l 1
 21 761 l 1
26 761 m 1
 27 761 l 1
 27 764 l 1
 26 764 l 1
 26 761 l 1
27 758 m 1
 27 764 l 1
 28 764 l 1
 28 758 l 1
 27 758 l 1
18 760 m 1
 19 760 l 1
 19 763 l 1
 18 763 l 1
 18 760 l 1
19 760 m 1
 19 763 l 1
 20 763 l 1
 20 760 l 1
 19 760 l 1
28 760 m 1
 28 763 l 1
 29 763 l 1
 29 760 l 1
 28 760 l 1
29 760 m 1
 30 760 l 1
 30 763 l 1
 29 763 l 1
 29 760 l 1
21 755 m 1
 21 761 l 1
 22 761 l 1
 22 755 l 1
 21 755 l 1
22 759 m 1
 23 759 l 1
 23 761 l 1
 22 761 l 1
 22 759 l 1
25 759 m 1
 26 759 l 1
 26 761 l 1
 25 761 l 1
 25 759 l 1
26 755 m 1
 26 761 l 1
 27 761 l 1
 27 755 l 1
 26 755 l 1
19 758 m 1
 20 758 l 1
 20 760 l 1
 19 760 l 1
 19 758 l 1
28 758 m 1
 29 758 l 1
 29 760 l 1
 28 760 l 1
 28 758 l 1
22 753 m 1
 22 759 l 1
 23 759 l 1
 23 753 l 1
 22 753 l 1
23 756 m 1
 25 756 l 1
 25 759 l 1
 23 759 l 1
 23 756 l 1
25 753 m 1
 25 759 l 1
 26 759 l 1
 26 753 l 1
 25 753 l 1
20 755 m 1
 21 755 l 1
 21 758 l 1
 20 758 l 1
 20 755 l 1
27 755 m 1
 28 755 l 1
 28 758 l 1
 27 758 l 1
 27 755 l 1
23 753 m 1
 23 756 l 1
 25 756 l 1
 25 753 l 1
 23 753 l 1
21 753 m 1
 22 753 l 1
 22 755 l 1
 21 755 l 1
 21 753 l 1
26 753 m 1
 27 753 l 1
 27 755 l 1
 26 755 l 1
 26 753 l 1
22 752 m 1
 26 752 l 1
 26 753 l 1
 22 753 l 1
 22 752 l 1
EndSplineSet
EndChar

StartChar: X
Encoding: 88 88 23
Width: 1000
Flags: H
LayerCount: 2
Fore
SplineSet
49 767 m 1
 52 767 l 1
 52 768 l 1
 49 768 l 1
 49 767 l 1
60 767 m 1
 63 767 l 1
 63 768 l 1
 60 768 l 1
 60 767 l 1
48 766 m 1
 49 766 l 1
 49 767 l 1
 48 767 l 1
 48 766 l 1
49 766 m 1
 49 767 l 1
 52 767 l 1
 52 766 l 1
 49 766 l 1
52 766 m 1
 53 766 l 1
 53 767 l 1
 52 767 l 1
 52 766 l 1
59 766 m 1
 60 766 l 1
 60 767 l 1
 59 767 l 1
 59 766 l 1
60 766 m 1
 60 767 l 1
 63 767 l 1
 63 766 l 1
 60 766 l 1
63 766 m 1
 64 766 l 1
 64 767 l 1
 63 767 l 1
 63 766 l 1
49 765 m 1
 50 765 l 1
 50 766 l 1
 49 766 l 1
 49 765 l 1
50 765 m 1
 50 766 l 1
 53 766 l 1
 53 765 l 1
 50 765 l 1
53 765 m 1
 54 765 l 1
 54 766 l 1
 53 766 l 1
 53 765 l 1
58 765 m 1
 59 765 l 1
 59 766 l 1
 58 766 l 1
 58 765 l 1
59 765 m 1
 59 766 l 1
 62 766 l 1
 62 765 l 1
 59 765 l 1
62 765 m 1
 63 765 l 1
 63 766 l 1
 62 766 l 1
 62 765 l 1
50 764 m 1
 51 764 l 1
 51 765 l 1
 50 765 l 1
 50 764 l 1
51 764 m 1
 51 765 l 1
 54 765 l 1
 54 764 l 1
 51 764 l 1
54 764 m 1
 55 764 l 1
 55 765 l 1
 54 765 l 1
 54 764 l 1
57 764 m 1
 58 764 l 1
 58 765 l 1
 57 765 l 1
 57 764 l 1
58 764 m 1
 58 765 l 1
 61 765 l 1
 61 764 l 1
 58 764 l 1
61 764 m 1
 62 764 l 1
 62 765 l 1
 61 765 l 1
 61 764 l 1
51 763 m 1
 52 763 l 1
 52 764 l 1
 51 764 l 1
 51 763 l 1
52 763 m 1
 52 764 l 1
 55 764 l 1
 55 763 l 1
 52 763 l 1
55 763 m 1
 57 763 l 1
 57 764 l 1
 55 764 l 1
 55 763 l 1
57 763 m 1
 57 764 l 1
 60 764 l 1
 60 763 l 1
 57 763 l 1
60 763 m 1
 61 763 l 1
 61 764 l 1
 60 764 l 1
 60 763 l 1
52 762 m 1
 53 762 l 1
 53 763 l 1
 52 763 l 1
 52 762 l 1
53 762 m 1
 53 763 l 1
 59 763 l 1
 59 762 l 1
 53 762 l 1
59 762 m 1
 60 762 l 1
 60 763 l 1
 59 763 l 1
 59 762 l 1
53 758 m 1
 54 758 l 1
 54 762 l 1
 53 762 l 1
 53 758 l 1
54 757 m 1
 54 762 l 1
 58 762 l 1
 58 757 l 1
 54 757 l 1
58 758 m 1
 59 758 l 1
 59 762 l 1
 58 762 l 1
 58 758 l 1
52 757 m 1
 53 757 l 1
 53 758 l 1
 52 758 l 1
 52 757 l 1
53 755 m 1
 53 758 l 1
 54 758 l 1
 54 755 l 1
 53 755 l 1
58 755 m 1
 58 758 l 1
 59 758 l 1
 59 755 l 1
 58 755 l 1
59 757 m 1
 60 757 l 1
 60 758 l 1
 59 758 l 1
 59 757 l 1
51 756 m 1
 52 756 l 1
 52 757 l 1
 51 757 l 1
 51 756 l 1
52 754 m 1
 52 757 l 1
 53 757 l 1
 53 754 l 1
 52 754 l 1
54 756 m 1
 54 757 l 1
 55 757 l 1
 55 756 l 1
 54 756 l 1
55 756 m 1
 57 756 l 1
 57 757 l 1
 55 757 l 1
 55 756 l 1
57 756 m 1
 57 757 l 1
 58 757 l 1
 58 756 l 1
 57 756 l 1
59 754 m 1
 59 757 l 1
 60 757 l 1
 60 754 l 1
 59 754 l 1
60 756 m 1
 61 756 l 1
 61 757 l 1
 60 757 l 1
 60 756 l 1
50 755 m 1
 51 755 l 1
 51 756 l 1
 50 756 l 1
 50 755 l 1
51 753 m 1
 51 756 l 1
 52 756 l 1
 52 753 l 1
 51 753 l 1
54 755 m 1
 55 755 l 1
 55 756 l 1
 54 756 l 1
 54 755 l 1
57 755 m 1
 58 755 l 1
 58 756 l 1
 57 756 l 1
 57 755 l 1
60 753 m 1
 60 756 l 1
 61 756 l 1
 61 753 l 1
 60 753 l 1
61 755 m 1
 62 755 l 1
 62 756 l 1
 61 756 l 1
 61 755 l 1
49 754 m 1
 50 754 l 1
 50 755 l 1
 49 755 l 1
 49 754 l 1
50 753 m 1
 50 755 l 1
 51 755 l 1
 51 753 l 1
 50 753 l 1
53 754 m 1
 54 754 l 1
 54 755 l 1
 53 755 l 1
 53 754 l 1
58 754 m 1
 59 754 l 1
 59 755 l 1
 58 755 l 1
 58 754 l 1
61 753 m 1
 61 755 l 1
 62 755 l 1
 62 753 l 1
 61 753 l 1
62 754 m 1
 63 754 l 1
 63 755 l 1
 62 755 l 1
 62 754 l 1
48 753 m 1
 49 753 l 1
 49 754 l 1
 48 754 l 1
 48 753 l 1
49 753 m 1
 49 754 l 1
 50 754 l 1
 50 753 l 1
 49 753 l 1
52 753 m 1
 53 753 l 1
 53 754 l 1
 52 754 l 1
 52 753 l 1
59 753 m 1
 60 753 l 1
 60 754 l 1
 59 754 l 1
 59 753 l 1
62 753 m 1
 62 754 l 1
 63 754 l 1
 63 753 l 1
 62 753 l 1
63 753 m 1
 64 753 l 1
 64 754 l 1
 63 754 l 1
 63 753 l 1
49 752 m 1
 52 752 l 1
 52 753 l 1
 49 753 l 1
 49 752 l 1
60 752 m 1
 63 752 l 1
 63 753 l 1
 60 753 l 1
 60 752 l 1
EndSplineSet
EndChar

StartChar: Z
Encoding: 90 90 24
Width: 1000
Flags: H
LayerCount: 2
Fore
SplineSet
82 767 m 1
 94 767 l 1
 94 768 l 1
 82 768 l 1
 82 767 l 1
81 763 m 1
 82 763 l 1
 82 767 l 1
 81 767 l 1
 81 763 l 1
82 765 m 1
 82 767 l 1
 94 767 l 1
 94 765 l 1
 82 765 l 1
94 764 m 1
 95 764 l 1
 95 767 l 1
 94 767 l 1
 94 764 l 1
82 764 m 1
 82 765 l 1
 84 765 l 1
 84 764 l 1
 82 764 l 1
84 764 m 1
 91 764 l 1
 91 765 l 1
 84 765 l 1
 84 764 l 1
91 764 m 1
 91 765 l 1
 94 765 l 1
 94 764 l 1
 91 764 l 1
82 763 m 1
 82 764 l 1
 83 764 l 1
 83 763 l 1
 82 763 l 1
83 763 m 1
 84 763 l 1
 84 764 l 1
 83 764 l 1
 83 763 l 1
89 763 m 1
 90 763 l 1
 90 764 l 1
 89 764 l 1
 89 763 l 1
90 763 m 1
 90 764 l 1
 93 764 l 1
 93 763 l 1
 90 763 l 1
93 763 m 1
 94 763 l 1
 94 764 l 1
 93 764 l 1
 93 763 l 1
82 762 m 1
 83 762 l 1
 83 763 l 1
 82 763 l 1
 82 762 l 1
88 762 m 1
 89 762 l 1
 89 763 l 1
 88 763 l 1
 88 762 l 1
89 762 m 1
 89 763 l 1
 92 763 l 1
 92 762 l 1
 89 762 l 1
92 762 m 1
 93 762 l 1
 93 763 l 1
 92 763 l 1
 92 762 l 1
84 761 m 1
 88 761 l 1
 88 762 l 1
 84 762 l 1
 84 761 l 1
88 759 m 1
 88 762 l 1
 91 762 l 1
 91 759 l 1
 88 759 l 1
91 761 m 1
 92 761 l 1
 92 762 l 1
 91 762 l 1
 91 761 l 1
83 759 m 1
 84 759 l 1
 84 761 l 1
 83 761 l 1
 83 759 l 1
84 759 m 1
 84 761 l 1
 88 761 l 1
 88 759 l 1
 84 759 l 1
91 759 m 1
 91 761 l 1
 92 761 l 1
 92 759 l 1
 91 759 l 1
92 759 m 1
 93 759 l 1
 93 761 l 1
 92 761 l 1
 92 759 l 1
84 758 m 1
 85 758 l 1
 85 759 l 1
 84 759 l 1
 84 758 l 1
85 758 m 1
 85 759 l 1
 88 759 l 1
 88 758 l 1
 85 758 l 1
88 758 m 1
 92 758 l 1
 92 759 l 1
 88 759 l 1
 88 758 l 1
83 757 m 1
 84 757 l 1
 84 758 l 1
 83 758 l 1
 83 757 l 1
84 757 m 1
 84 758 l 1
 87 758 l 1
 87 757 l 1
 84 757 l 1
87 757 m 1
 88 757 l 1
 88 758 l 1
 87 758 l 1
 87 757 l 1
93 757 m 1
 94 757 l 1
 94 758 l 1
 93 758 l 1
 93 757 l 1
82 756 m 1
 83 756 l 1
 83 757 l 1
 82 757 l 1
 82 756 l 1
83 756 m 1
 83 757 l 1
 86 757 l 1
 86 756 l 1
 83 756 l 1
86 755 m 1
 87 755 l 1
 87 757 l 1
 86 757 l 1
 86 755 l 1
92 756 m 1
 93 756 l 1
 93 757 l 1
 92 757 l 1
 92 756 l 1
93 753 m 1
 93 757 l 1
 94 757 l 1
 94 753 l 1
 93 753 l 1
94 753 m 1
 95 753 l 1
 95 757 l 1
 94 757 l 1
 94 753 l 1
81 753 m 1
 82 753 l 1
 82 756 l 1
 81 756 l 1
 81 753 l 1
82 753 m 1
 82 756 l 1
 85 756 l 1
 85 753 l 1
 82 753 l 1
85 755 m 1
 86 755 l 1
 86 756 l 1
 85 756 l 1
 85 755 l 1
87 755 m 1
 92 755 l 1
 92 756 l 1
 87 756 l 1
 87 755 l 1
92 753 m 1
 92 756 l 1
 93 756 l 1
 93 753 l 1
 92 753 l 1
85 753 m 1
 85 755 l 1
 92 755 l 1
 92 753 l 1
 85 753 l 1
82 752 m 1
 94 752 l 1
 94 753 l 1
 82 753 l 1
 82 752 l 1
EndSplineSet
EndChar

StartChar: Y
Encoding: 89 89 25
Width: 1000
Flags: H
LayerCount: 2
Fore
SplineSet
65 767 m 1
 68 767 l 1
 68 768 l 1
 65 768 l 1
 65 767 l 1
76 767 m 1
 79 767 l 1
 79 768 l 1
 76 768 l 1
 76 767 l 1
64 766 m 1
 65 766 l 1
 65 767 l 1
 64 767 l 1
 64 766 l 1
65 766 m 1
 65 767 l 1
 68 767 l 1
 68 766 l 1
 65 766 l 1
68 766 m 1
 69 766 l 1
 69 767 l 1
 68 767 l 1
 68 766 l 1
75 766 m 1
 76 766 l 1
 76 767 l 1
 75 767 l 1
 75 766 l 1
76 766 m 1
 76 767 l 1
 79 767 l 1
 79 766 l 1
 76 766 l 1
79 766 m 1
 80 766 l 1
 80 767 l 1
 79 767 l 1
 79 766 l 1
65 765 m 1
 66 765 l 1
 66 766 l 1
 65 766 l 1
 65 765 l 1
66 765 m 1
 66 766 l 1
 69 766 l 1
 69 765 l 1
 66 765 l 1
69 765 m 1
 70 765 l 1
 70 766 l 1
 69 766 l 1
 69 765 l 1
74 765 m 1
 75 765 l 1
 75 766 l 1
 74 766 l 1
 74 765 l 1
75 765 m 1
 75 766 l 1
 78 766 l 1
 78 765 l 1
 75 765 l 1
78 765 m 1
 79 765 l 1
 79 766 l 1
 78 766 l 1
 78 765 l 1
66 764 m 1
 67 764 l 1
 67 765 l 1
 66 765 l 1
 66 764 l 1
67 764 m 1
 67 765 l 1
 70 765 l 1
 70 764 l 1
 67 764 l 1
70 764 m 1
 71 764 l 1
 71 765 l 1
 70 765 l 1
 70 764 l 1
73 764 m 1
 74 764 l 1
 74 765 l 1
 73 765 l 1
 73 764 l 1
74 764 m 1
 74 765 l 1
 77 765 l 1
 77 764 l 1
 74 764 l 1
77 764 m 1
 78 764 l 1
 78 765 l 1
 77 765 l 1
 77 764 l 1
67 763 m 1
 68 763 l 1
 68 764 l 1
 67 764 l 1
 67 763 l 1
68 763 m 1
 68 764 l 1
 71 764 l 1
 71 763 l 1
 68 763 l 1
71 763 m 1
 73 763 l 1
 73 764 l 1
 71 764 l 1
 71 763 l 1
73 763 m 1
 73 764 l 1
 76 764 l 1
 76 763 l 1
 73 763 l 1
76 763 m 1
 77 763 l 1
 77 764 l 1
 76 764 l 1
 76 763 l 1
68 762 m 1
 69 762 l 1
 69 763 l 1
 68 763 l 1
 68 762 l 1
69 762 m 1
 69 763 l 1
 75 763 l 1
 75 762 l 1
 69 762 l 1
75 762 m 1
 76 762 l 1
 76 763 l 1
 75 763 l 1
 75 762 l 1
69 761 m 1
 70 761 l 1
 70 762 l 1
 69 762 l 1
 69 761 l 1
70 761 m 1
 70 762 l 1
 74 762 l 1
 74 761 l 1
 70 761 l 1
74 761 m 1
 75 761 l 1
 75 762 l 1
 74 762 l 1
 74 761 l 1
70 755 m 1
 71 755 l 1
 71 761 l 1
 70 761 l 1
 70 755 l 1
71 753 m 1
 71 761 l 1
 73 761 l 1
 73 753 l 1
 71 753 l 1
73 755 m 1
 74 755 l 1
 74 761 l 1
 73 761 l 1
 73 755 l 1
69 754 m 1
 70 754 l 1
 70 755 l 1
 69 755 l 1
 69 754 l 1
70 753 m 1
 70 755 l 1
 71 755 l 1
 71 753 l 1
 70 753 l 1
73 753 m 1
 73 755 l 1
 74 755 l 1
 74 753 l 1
 73 753 l 1
74 754 m 1
 75 754 l 1
 75 755 l 1
 74 755 l 1
 74 754 l 1
68 753 m 1
 69 753 l 1
 69 754 l 1
 68 754 l 1
 68 753 l 1
69 753 m 1
 69 754 l 1
 70 754 l 1
 70 753 l 1
 69 753 l 1
74 753 m 1
 74 754 l 1
 75 754 l 1
 75 753 l 1
 74 753 l 1
75 753 m 1
 76 753 l 1
 76 754 l 1
 75 754 l 1
 75 753 l 1
69 752 m 1
 75 752 l 1
 75 753 l 1
 69 753 l 1
 69 752 l 1
EndSplineSet
EndChar
